<!DOCTYPE svg PUBLIC "-//W3C//DTD SVG 20010904//EN" "http://www.w3.org/TR/2001/REC-SVG-20010904/DTD/svg10.dtd">
<svg version="1.0" xmlns="http://www.w3.org/2000/svg" width="1600px" height="601px" viewBox="0 0 16000 6010" preserveAspectRatio="xMidYMid meet">
<g id="layer1" fill="#000000" stroke="none">
 <path d="M11590 5922 c-47 -43 -52 -52 -57 -102 -4 -44 -2 -58 11 -69 51 -42 -26 -61 -239 -58 -145 2 -163 4 -190 23 -17 12 -59 26 -95 32 -36 5 -91 19 -124 31 -32 12 -91 28 -130 36 -229 44 -343 74 -372 96 -17 14 -71 14 -87 0 -9 -7 -19 -25 -22 -41 -4 -16 -20 -46 -36 -66 -24 -31 -29 -46 -29 -93 0 -118 42 -138 141 -68 22 16 30 17 47 6 16 -10 24 -10 34 -1 9 7 33 9 67 5 35 -4 55 -2 60 5 10 16 81 3 89 -17 5 -11 22 -17 57 -18 102 -5 217 -49 271 -104 l38 -39 -20 -67 c-18 -62 -22 -68 -44 -66 -14 1 -65 4 -115 5 l-89 3 -33 43 c-18 24 -33 54 -33 66 0 25 33 60 68 71 33 10 27 25 -12 25 -26 0 -43 -9 -75 -40 l-41 -40 7 -60 c3 -33 3 -60 0 -60 -17 0 -135 66 -149 84 -19 23 -24 71 -8 81 18 11 10 26 -12 23 -21 -3 -23 -9 -26 -63 -2 -59 -1 -61 47 -120 38 -47 51 -72 58 -115 6 -30 14 -63 18 -72 9 -23 -78 -105 -127 -118 -46 -13 -49 -26 -8 -35 32 -7 95 17 104 41 3 8 10 14 17 14 7 0 8 -7 4 -17 -6 -15 -43 -204 -59 -308 -14 -84 -25 -144 -35 -180 -6 -22 -11 -53 -11 -68 0 -19 -12 -39 -36 -63 l-37 -34 7 -88 7 -87 -45 -19 c-25 -11 -46 -20 -46 -22 0 -2 29 -56 64 -121 35 -65 67 -129 71 -142 4 -13 20 -44 36 -69 16 -25 29 -50 29 -55 0 -4 11 -23 25 -41 14 -18 25 -38 25 -44 0 -6 8 -30 18 -54 11 -24 21 -59 25 -79 l5 -37 -106 5 c-73 3 -121 0 -152 -9 -40 -12 -45 -17 -48 -45 -2 -18 4 -44 12 -60 26 -49 124 -143 155 -149 17 -4 32 -12 35 -20 3 -8 12 -14 20 -14 8 0 17 -8 20 -18 4 -10 22 -35 41 -56 35 -39 35 -39 95 -32 60 7 107 19 146 38 41 19 59 7 62 -42 2 -25 10 -50 18 -57 8 -6 14 -17 13 -25 -4 -20 11 -58 24 -58 6 0 21 -10 34 -22 18 -17 39 -23 88 -26 64 -4 71 -1 66 31 -1 5 4 5 10 1 12 -7 69 53 69 74 0 7 5 10 10 7 17 -11 9 342 -8 385 -14 34 -14 35 19 60 74 57 72 54 70 106 -1 27 -5 119 -8 204 -3 106 -9 160 -18 170 -7 8 -18 35 -25 60 -16 63 -31 100 -41 100 -5 0 -9 6 -9 13 0 8 -23 24 -50 37 -37 17 -52 31 -56 49 -3 14 -11 37 -18 51 -8 14 -21 50 -31 80 -23 72 -53 130 -66 130 -8 0 -9 28 -6 88 6 90 29 164 74 231 13 19 23 42 23 52 0 10 5 21 10 24 6 3 10 21 10 40 0 19 4 37 10 40 12 7 50 92 50 111 0 25 35 15 78 -22 23 -19 42 -30 42 -24 0 6 5 8 12 4 7 -5 9 0 6 14 -4 12 0 26 9 33 13 12 43 62 43 73 0 16 -37 36 -69 36 -20 0 -45 6 -54 13 -15 11 -15 17 -3 56 13 45 59 95 80 88 13 -4 55 -82 80 -152 21 -57 80 -181 99 -207 9 -14 9 -22 0 -35 -47 -66 -55 -95 -49 -172 5 -71 7 -78 40 -109 29 -26 42 -31 64 -26 62 14 90 34 103 72 15 47 27 62 44 55 24 -8 84 17 90 39 4 11 23 26 42 34 19 8 48 30 65 49 16 19 34 32 39 29 24 -14 39 -83 44 -202 8 -163 24 -229 86 -357 10 -22 19 -56 19 -75 -1 -30 -7 -39 -46 -64 -49 -31 -60 -50 -79 -139 -13 -58 -10 -172 5 -192 4 -5 10 -43 14 -83 6 -70 5 -75 -24 -115 -21 -30 -32 -60 -39 -107 -4 -36 -6 -70 -4 -77 3 -6 -6 -13 -19 -15 -20 -3 -23 -9 -26 -55 -3 -45 1 -58 25 -89 24 -32 28 -46 29 -114 2 -105 13 -174 36 -240 31 -87 32 -112 8 -161 -12 -24 -34 -54 -49 -67 l-26 -23 25 7 c14 4 31 9 38 11 6 3 12 0 12 -6 0 -6 18 -11 43 -11 31 0 45 5 55 20 16 26 37 25 56 -2 9 -12 18 -20 20 -17 3 3 -12 32 -33 65 -41 65 -58 122 -72 244 -5 41 -11 98 -15 126 l-6 51 43 29 c41 28 44 33 49 84 6 57 26 100 47 100 16 0 43 -52 43 -82 0 -13 11 -39 23 -58 14 -20 27 -58 30 -89 4 -30 10 -58 15 -63 5 -5 40 -14 78 -19 l69 -10 28 31 c15 17 27 39 27 51 0 33 38 96 79 130 l39 33 -19 26 c-12 17 -19 45 -21 86 -2 50 3 70 29 120 37 73 59 162 77 324 23 195 29 359 16 410 -6 25 -15 77 -20 115 -8 65 -11 72 -51 108 l-43 38 2 103 c1 114 -8 139 -55 151 -61 14 -73 30 -72 93 1 32 -6 79 -15 105 -9 26 -16 54 -16 62 0 8 -9 32 -21 54 -18 36 -26 57 -28 84 -1 4 -5 7 -11 7 -13 0 -45 32 -61 63 -8 13 -22 39 -33 57 -17 32 -17 35 -2 62 10 15 18 47 19 70 2 40 0 44 -38 64 -22 12 -47 23 -56 23 -15 1 -69 67 -69 86 0 15 -82 118 -146 183 l-62 63 -106 4 -105 4 -51 -47z m-516 -481 c13 -24 13 -31 2 -40 -18 -15 -26 -4 -26 36 0 41 5 41 24 4z m-196 -358 c-11 -32 -23 -92 -26 -133 -3 -41 -11 -84 -18 -95 -7 -11 -18 -42 -25 -70 -6 -27 -20 -66 -29 -85 -10 -19 -23 -53 -30 -75 -14 -46 -38 -77 -52 -69 -14 9 2 272 18 311 8 18 14 47 14 64 0 44 22 123 50 179 7 15 44 27 92 29 l26 1 -20 -57z m1261 -89 c18 -4 42 0 61 10 39 19 46 16 54 -26 4 -18 9 -45 12 -60 7 -33 -15 -46 -55 -32 -14 5 -45 7 -68 4 -40 -6 -43 -5 -72 37 -22 31 -31 55 -31 84 l0 41 35 -26 c19 -14 47 -29 64 -32z m401 -419 c10 -12 10 -19 2 -27 -13 -13 -42 6 -42 28 0 19 24 18 40 -1z m-5 -145 c19 -37 19 -65 -2 -129 -12 -38 -21 -51 -36 -51 -14 0 -17 4 -12 18 4 9 10 56 13 105 2 48 8 87 13 87 5 0 15 -13 24 -30z m-1955 -1080 c0 -5 -4 -10 -9 -10 -6 0 -13 5 -16 10 -3 6 1 10 9 10 9 0 16 -4 16 -10z"/>
 <path d="M1805 5818 c-22 -5 -76 -19 -120 -30 -44 -11 -104 -24 -133 -27 -64 -9 -77 -20 -74 -69 4 -53 23 -64 103 -56 56 5 68 4 76 -10 5 -9 23 -18 39 -20 16 -2 32 -4 35 -5 4 0 9 -8 13 -16 8 -22 -21 -45 -54 -41 -34 4 -45 -17 -35 -63 4 -20 1 -34 -10 -45 -10 -10 -18 -39 -20 -78 -16 -226 -14 -221 -71 -295 -31 -41 -34 -50 -34 -118 0 -52 -4 -76 -15 -85 -10 -8 -15 -31 -16 -69 0 -31 -4 -78 -10 -106 -5 -27 -12 -67 -16 -89 -8 -48 14 -233 32 -266 10 -19 14 -79 14 -228 0 -112 3 -219 7 -237 5 -28 3 -36 -12 -42 -10 -4 -19 -2 -21 4 -7 21 -151 210 -170 224 -11 8 -28 28 -39 44 -70 112 -245 305 -275 305 -32 0 -49 -12 -49 -35 0 -17 -16 -34 -57 -63 -82 -57 -128 -92 -173 -130 -42 -36 -170 -202 -170 -220 0 -6 -9 -27 -20 -47 -23 -40 -26 -75 -8 -93 7 -7 11 -32 9 -59 -2 -27 -4 -61 -5 -78 -1 -26 -5 -30 -29 -31 -35 -1 -43 -10 -50 -55 -6 -43 -2 -50 45 -72 36 -17 36 -18 44 -95 11 -106 8 -155 -10 -190 -14 -28 -14 -31 4 -47 11 -10 20 -23 20 -29 0 -6 11 -28 25 -48 14 -20 25 -42 25 -49 0 -14 92 -124 129 -154 13 -11 33 -28 43 -37 10 -10 20 -18 23 -18 3 0 29 -15 58 -34 28 -18 73 -45 99 -60 30 -17 53 -39 65 -63 15 -31 24 -39 52 -41 29 -3 40 3 75 40 23 24 59 66 81 93 21 28 53 65 69 84 20 22 24 29 10 20 -12 -8 -50 -47 -85 -87 -35 -39 -67 -72 -72 -72 -5 0 -20 9 -34 20 -14 11 -34 20 -44 20 -16 0 -19 9 -21 63 -2 74 -3 94 -17 262 -6 72 -10 178 -11 238 l0 107 33 1 c84 4 417 -3 457 -8 25 -4 59 -7 75 -7 24 -1 31 -6 33 -24 2 -14 -4 -29 -15 -37 -17 -12 -17 -15 -1 -49 l18 -36 -41 -57 c-22 -32 -72 -93 -110 -136 -39 -42 -89 -101 -112 -130 l-40 -52 42 40 c23 22 56 59 74 81 18 23 60 71 94 108 50 54 66 66 82 61 16 -5 21 -15 21 -45 l0 -38 93 -45 c203 -99 232 -110 267 -108 27 2 98 27 100 35 1 0 3 29 6 64 l6 63 -56 63 c-31 35 -56 72 -56 83 0 10 -7 27 -15 37 -8 11 -15 29 -15 39 0 18 5 19 67 13 37 -4 101 -16 142 -28 91 -24 236 -26 281 -3 70 36 28 127 -89 189 -38 20 -78 36 -90 36 -12 0 -46 14 -76 31 -48 27 -56 37 -75 87 -11 31 -29 73 -40 93 -11 20 -20 49 -20 64 0 15 -6 41 -14 58 -25 59 -56 205 -56 263 0 83 21 139 52 139 20 0 24 6 30 50 3 28 7 124 7 215 2 221 18 245 67 99 33 -98 63 -156 83 -162 12 -3 4 22 -30 92 -59 123 -83 195 -75 227 4 14 3 31 -2 37 -5 7 -5 55 -1 110 7 96 7 98 -18 123 -23 23 -25 31 -19 72 4 26 9 88 13 139 5 79 9 95 29 114 33 31 30 48 -11 65 -58 24 -71 90 -34 169 12 25 25 48 30 51 16 10 9 61 -10 78 -23 21 -79 23 -121 6 -40 -17 -64 -7 -50 19 9 18 6 21 -27 30 -42 12 -43 12 -98 -1z m140 -242 c15 -16 19 -32 17 -68 -3 -45 -4 -46 -40 -50 -49 -6 -62 12 -60 82 0 30 3 58 5 63 7 12 57 -5 78 -27z m-39 -208 c-4 -29 -11 -71 -16 -93 -5 -22 -10 -60 -10 -85 0 -25 -4 -52 -10 -60 -18 -30 -23 21 -10 114 7 50 14 106 15 124 2 28 17 51 33 52 2 0 1 -24 -2 -52z m-800 -1095 c28 -38 47 -62 139 -168 28 -32 66 -79 85 -104 19 -25 41 -52 47 -59 38 -40 121 -161 127 -184 10 -44 -41 -77 -72 -46 -8 8 -39 12 -85 11 -233 -5 -327 -4 -336 2 -6 3 -11 29 -11 57 0 66 -10 57 -11 -9 -1 -28 -4 -55 -8 -60 -3 -5 -49 -14 -101 -20 -52 -6 -113 -17 -136 -24 -41 -12 -41 -12 -83 29 -42 40 -42 42 -40 102 2 36 -2 65 -9 72 -16 16 -15 107 1 134 19 35 129 153 146 159 9 3 21 15 26 26 6 12 29 29 52 38 22 9 50 24 61 34 11 10 31 17 44 15 22 -3 23 -6 24 -108 1 -123 14 -333 20 -327 6 6 6 150 0 225 -3 34 -2 62 2 62 4 0 5 32 2 70 -5 73 1 90 31 90 10 0 21 5 24 10 12 19 33 10 61 -27z m179 -709 c22 -4 65 -18 95 -32 47 -22 70 -26 157 -27 99 -1 133 -10 119 -33 -4 -6 -111 -9 -282 -8 l-277 1 -28 28 c-33 32 -38 57 -11 57 10 0 27 7 38 15 19 15 95 14 189 -1z m-337 -36 c9 -29 10 -44 3 -51 -7 -7 -60 -10 -137 -9 -114 1 -129 3 -146 22 -10 11 -23 20 -29 20 -6 0 -9 10 -7 23 3 19 10 23 63 28 33 3 101 6 150 6 l91 1 12 -40z m52 -110 c0 -39 18 -468 25 -585 4 -67 2 -83 -10 -83 -7 0 -16 4 -19 9 -3 5 -29 21 -58 36 -29 15 -66 38 -81 51 -16 13 -33 24 -38 24 -19 0 -122 105 -158 160 -30 47 -35 63 -35 110 1 30 6 65 13 78 9 16 9 32 1 60 -15 54 -13 117 5 132 8 7 15 19 15 26 0 11 32 14 170 14 l170 0 0 -32z"/>
 <path d="M2640 5740 c0 -5 -4 -9 -8 -7 -13 4 -73 -70 -82 -102 -5 -17 -5 -43 -1 -58 5 -16 6 -54 3 -85 -3 -42 0 -68 13 -95 35 -78 78 -159 92 -174 8 -10 20 -40 28 -68 13 -51 53 -119 125 -216 53 -70 64 -131 56 -324 -3 -86 -6 -182 -6 -215 0 -56 -1 -58 -24 -52 -24 6 -61 -22 -93 -71 -19 -28 -116 -51 -138 -33 -21 18 -64 4 -77 -25 -12 -26 -3 -79 12 -70 5 3 27 -12 49 -32 51 -49 118 -103 127 -103 10 0 74 -50 74 -58 0 -4 -37 -8 -82 -10 -46 -2 -99 -6 -118 -10 -50 -11 -59 -49 -37 -161 9 -47 21 -117 27 -156 6 -38 18 -103 27 -143 15 -69 15 -75 0 -102 -23 -39 -22 -42 23 -91 26 -29 46 -63 56 -99 9 -30 31 -87 50 -126 19 -39 34 -80 34 -91 0 -38 38 -98 79 -123 22 -14 41 -28 41 -32 0 -5 20 -8 44 -8 47 0 98 19 133 48 32 28 73 91 67 105 -2 7 1 35 7 62 6 28 14 73 19 100 5 28 16 82 24 120 9 39 19 90 22 115 3 25 8 52 11 60 3 8 4 43 4 76 -2 47 3 70 18 95 12 19 21 46 21 60 0 38 22 54 52 38 36 -19 58 -38 202 -174 75 -71 146 -135 159 -144 13 -9 47 -36 74 -61 43 -39 49 -49 41 -69 -9 -25 5 -51 27 -51 8 0 15 -5 17 -11 2 -6 25 -13 51 -16 26 -3 52 -12 58 -19 31 -37 66 4 42 49 -8 16 -12 39 -9 50 3 14 -3 28 -19 43 -14 13 -25 27 -25 32 0 5 -25 12 -55 16 l-55 6 -165 164 -164 163 16 44 c16 43 16 45 -13 104 -29 60 -29 60 -79 65 -43 4 -49 8 -46 25 2 11 5 39 6 63 1 24 10 51 20 62 11 13 19 39 21 70 2 27 9 62 18 77 8 16 24 66 36 113 12 47 26 99 32 115 5 17 14 50 18 75 5 25 18 74 28 110 24 78 47 250 45 340 -5 203 -22 371 -43 410 -16 30 -12 59 13 83 31 29 72 102 87 154 10 34 10 48 0 74 -12 29 -16 31 -51 26 -50 -7 -116 -59 -135 -107 -8 -20 -26 -43 -40 -51 -14 -7 -35 -26 -46 -42 -20 -28 -20 -30 -3 -120 9 -51 17 -121 17 -157 -1 -36 6 -101 15 -145 18 -89 19 -181 3 -200 -5 -6 -7 -14 -4 -17 3 -4 -2 -20 -10 -37 -9 -16 -16 -42 -16 -56 0 -14 -7 -28 -15 -31 -8 -4 -15 -12 -15 -20 0 -8 -25 -63 -55 -123 -30 -60 -55 -118 -55 -130 0 -14 -6 -21 -18 -21 -10 0 -23 -5 -29 -11 -14 -14 -47 59 -90 196 -38 122 -93 350 -93 388 0 21 -8 33 -35 48 -19 12 -35 27 -35 35 0 7 -9 18 -20 24 -26 14 -70 83 -70 109 0 11 -20 52 -45 90 -25 38 -50 80 -55 93 -6 12 -19 39 -30 58 -15 28 -18 56 -18 141 1 138 -6 169 -38 169 -13 0 -24 -4 -24 -10z m200 -1914 c0 -20 -29 -69 -51 -86 -3 -3 -9 -17 -13 -32 -3 -16 -11 -28 -17 -28 -10 0 -74 129 -67 135 13 13 80 34 111 34 32 1 37 -2 37 -23z"/>
 <path d="M14124 5685 c-8 -20 10 -68 40 -108 14 -19 29 -49 32 -68 4 -19 11 -43 17 -54 12 -24 17 -51 22 -130 6 -80 6 -73 2 -205 -2 -63 0 -134 5 -157 9 -40 10 -42 34 -33 37 14 44 12 44 -10 0 -13 -12 -28 -30 -38 -30 -17 -38 -36 -20 -47 14 -9 12 -52 -2 -58 -10 -3 -10 -7 -1 -17 7 -8 8 -21 2 -39 -6 -17 -4 -66 5 -141 8 -63 11 -121 6 -129 -4 -8 -5 -31 -3 -52 4 -30 2 -40 -11 -45 -9 -3 -16 -12 -16 -20 0 -7 -8 -18 -17 -23 -16 -9 -17 -10 -1 -11 29 0 66 -68 73 -132 1 -10 8 -26 16 -35 8 -10 20 -29 27 -43 7 -14 18 -33 24 -44 10 -15 10 -19 1 -23 -20 -7 -15 -41 7 -53 11 -6 20 -17 20 -25 0 -17 -26 -20 -35 -5 -11 18 -25 10 -25 -15 0 -14 4 -25 8 -25 15 0 32 -65 26 -100 -3 -19 -8 -57 -12 -85 -7 -47 -9 -50 -37 -53 -55 -4 -154 -34 -167 -49 -14 -18 -13 -99 2 -139 6 -15 13 -54 16 -87 3 -41 14 -78 34 -114 17 -30 30 -63 30 -74 0 -11 5 -48 12 -83 11 -58 16 -66 45 -80 19 -9 42 -16 53 -16 10 0 25 -6 32 -14 18 -18 57 -30 85 -27 12 1 25 -4 30 -12 4 -8 17 -16 28 -19 18 -3 20 -12 21 -85 1 -48 -4 -104 -13 -133 -15 -50 -14 -51 18 -119 25 -53 41 -73 73 -91 47 -27 69 -27 181 -3 68 15 86 24 122 59 30 28 43 49 43 67 0 32 -29 64 -65 73 -31 8 -57 62 -49 104 5 22 1 33 -20 51 -14 12 -26 30 -26 40 0 20 45 59 69 59 9 0 25 6 36 13 11 8 41 22 68 32 26 10 47 21 47 25 0 4 18 12 41 19 22 7 43 20 47 30 9 23 99 121 112 121 5 0 20 10 32 23 33 31 77 53 123 62 45 8 108 38 138 66 23 21 133 65 189 74 29 6 47 1 93 -24 56 -31 95 -42 64 -18 -8 7 -18 20 -22 30 -8 22 18 35 42 20 19 -12 40 4 33 26 -2 7 0 16 6 20 6 4 4 19 -6 44 -13 27 -23 37 -40 37 -34 0 -115 -21 -132 -35 -8 -6 -58 -17 -110 -24 -140 -18 -172 -27 -258 -70 -24 -11 -51 -21 -60 -21 -22 0 -222 -69 -247 -86 -33 -21 -43 -5 -42 67 1 69 -15 124 -39 133 -7 3 -11 12 -8 21 10 25 -4 63 -22 61 -26 -2 -26 17 -2 44 26 28 35 84 18 105 -8 9 -7 16 3 26 15 16 15 9 19 224 2 94 0 199 -4 235 -12 110 -28 193 -39 206 -5 7 -21 60 -34 118 -13 58 -35 128 -48 155 -26 50 -37 138 -24 177 4 13 1 33 -8 50 -8 16 -12 37 -9 46 3 10 -4 38 -15 63 -11 25 -17 45 -13 45 4 0 -1 5 -10 10 -24 15 -111 297 -110 359 1 53 33 99 88 127 60 30 76 58 47 79 -24 19 -97 19 -132 1 -15 -8 -36 -28 -46 -43 -10 -15 -35 -43 -56 -61 l-38 -33 14 -47 c20 -70 37 -292 31 -417 -8 -151 -8 -141 3 -225 6 -41 13 -114 17 -162 5 -76 4 -88 -9 -88 -11 0 -18 14 -23 48 -4 26 -15 68 -25 94 -22 56 -28 83 -35 158 -3 30 -10 67 -16 82 -5 15 -11 39 -13 55 -4 33 -26 95 -41 114 -31 39 -77 198 -90 314 -14 117 -26 182 -40 202 -13 21 -22 23 -105 23 -70 0 -91 -3 -95 -15z"/>
 <path d="M4380 5654 c-58 -21 -61 -25 -59 -88 2 -74 -10 -156 -22 -156 -5 0 -9 -27 -9 -59 0 -33 -5 -63 -10 -66 -17 -10 -107 35 -120 61 -8 15 -10 40 -6 71 23 163 23 163 -47 163 -34 0 -40 -4 -65 -45 -15 -24 -35 -47 -45 -51 -14 -4 -17 -12 -13 -30 20 -80 19 -111 -9 -158 -25 -43 -27 -51 -17 -84 9 -28 23 -43 59 -64 57 -33 91 -63 117 -102 10 -17 32 -41 48 -54 26 -22 28 -28 22 -73 -5 -40 -4 -50 10 -55 20 -8 21 -34 1 -34 -11 0 -12 -5 -5 -26 11 -28 -13 -157 -34 -183 -17 -22 -10 -403 9 -448 29 -69 12 -103 -50 -103 -18 0 -29 8 -37 25 -6 14 -22 28 -35 32 -14 3 -29 16 -33 29 -9 24 -34 31 -56 16 -6 -4 -15 -30 -21 -58 -8 -45 -7 -53 9 -63 16 -10 18 -25 18 -118 0 -79 4 -111 14 -122 8 -9 20 -48 25 -86 15 -96 31 -152 47 -166 8 -6 14 -19 14 -28 0 -9 18 -54 40 -101 23 -47 51 -106 63 -132 15 -34 29 -50 47 -54 14 -3 34 -9 46 -14 11 -4 45 -13 75 -19 l55 -12 -1 -91 -1 -90 -52 -20 c-68 -25 -67 -40 2 -32 53 6 56 5 88 -28 18 -19 45 -43 60 -52 24 -16 29 -16 57 -2 16 9 46 16 66 16 19 0 35 4 35 8 0 5 9 19 20 32 19 22 26 62 22 120 -2 30 17 80 30 80 5 0 2 7 -6 16 -17 16 -20 42 -8 60 8 13 98 54 117 54 7 0 15 7 18 15 4 8 22 21 42 29 22 9 35 22 35 33 0 10 6 27 13 38 8 11 20 43 27 70 7 28 17 54 21 59 5 6 9 20 9 33 0 13 7 26 15 29 15 6 43 60 68 134 9 25 18 92 21 150 3 58 10 119 16 136 6 18 12 67 13 110 2 77 1 79 -26 92 -37 18 -57 2 -57 -44 0 -27 -4 -34 -19 -34 -10 0 -21 -7 -25 -15 -4 -11 -23 -15 -81 -15 -72 0 -76 1 -105 33 -16 17 -27 38 -25 46 8 21 -14 41 -46 41 -53 0 -60 19 -59 154 1 68 -5 162 -14 214 -8 52 -15 97 -14 100 1 4 -4 20 -10 35 -7 16 -12 33 -12 38 0 5 -4 9 -9 9 -5 0 -12 8 -15 18 -6 15 -36 53 -92 116 -20 23 -37 79 -37 126 0 38 17 236 32 370 9 80 8 88 -15 133 -13 27 -24 59 -24 71 0 12 -6 30 -12 39 -14 18 -63 30 -88 21z"/>
 <path d="M13255 5563 c-25 -26 -45 -54 -45 -63 0 -9 -11 -31 -25 -50 -18 -24 -25 -47 -25 -79 -1 -36 -9 -58 -38 -101 -20 -30 -44 -55 -52 -55 -8 0 -27 25 -42 55 -24 46 -28 67 -28 136 0 80 -1 82 -27 92 -96 37 -127 19 -92 -50 12 -24 26 -59 29 -78 4 -19 15 -62 24 -95 23 -81 48 -234 40 -246 -3 -5 2 -29 11 -54 19 -48 14 -108 -10 -135 -8 -9 -17 -40 -20 -70 -4 -30 -19 -81 -35 -115 -16 -33 -32 -76 -36 -95 -3 -19 -13 -50 -21 -69 -14 -30 -20 -151 -9 -169 2 -4 7 -30 10 -57 5 -49 31 -125 45 -135 14 -10 33 -148 23 -167 -5 -10 -13 -40 -16 -68 -4 -27 -16 -76 -27 -109 -19 -57 -28 -141 -15 -153 3 -3 1 -12 -5 -20 -24 -29 -28 -405 -4 -443 2 -3 -3 -51 -12 -106 -13 -81 -14 -114 -4 -185 11 -85 50 -219 72 -245 6 -8 9 -27 5 -44 -6 -32 8 -80 27 -92 7 -4 24 -8 38 -8 15 0 37 -12 55 -31 48 -50 177 -127 259 -154 146 -49 311 -48 460 3 195 67 347 224 421 432 36 102 46 301 19 388 -63 206 -192 363 -374 458 -36 19 -73 38 -81 43 -16 10 -156 55 -205 67 -16 3 -54 8 -83 9 -30 1 -60 9 -68 16 -7 8 -18 39 -24 69 -6 30 -15 59 -20 64 -6 6 -10 29 -10 52 0 24 -5 46 -11 50 -13 8 -7 62 14 124 42 123 45 154 30 323 -9 95 -8 100 21 110 15 6 17 14 12 50 -8 48 -8 59 -5 222 3 147 -9 195 -57 231 -33 26 -35 26 -54 9 -15 -14 -20 -31 -20 -69 0 -28 -4 -67 -10 -86 -6 -22 -6 -38 0 -44 17 -17 11 -46 -9 -46 -12 0 -23 12 -31 33 -7 17 -19 46 -26 64 -18 41 -18 127 1 163 8 16 17 66 20 112 6 92 21 163 42 193 7 11 13 27 13 36 0 9 9 24 20 34 10 9 42 50 69 90 48 69 50 73 32 89 -9 9 -34 16 -54 16 -31 0 -45 -8 -82 -47z m143 -1015 c-3 -7 -12 -14 -21 -16 -12 -2 -15 1 -11 12 7 19 38 22 32 4z m292 -1039 c19 -5 50 -19 69 -31 19 -13 53 -34 75 -48 23 -14 49 -41 58 -59 18 -37 50 -57 106 -67 54 -10 70 -20 91 -62 42 -83 63 -173 63 -278 0 -89 -3 -109 -27 -160 -61 -133 -82 -171 -128 -229 -45 -56 -142 -144 -160 -145 -4 0 -21 -9 -36 -21 -51 -38 -154 -59 -281 -59 -137 1 -204 15 -288 64 -145 82 -166 111 -169 236 -10 316 -10 320 16 341 14 11 39 19 62 19 33 0 41 4 49 24 5 14 33 44 62 66 65 51 72 63 65 106 -3 18 -1 50 4 70 12 42 5 53 -43 68 -29 10 -33 15 -33 46 0 32 3 35 49 52 27 9 62 20 79 24 31 7 75 25 117 50 26 15 128 12 200 -7z"/>
 <path d="M5530 5545 c-7 -8 -26 -15 -42 -15 -16 0 -30 -6 -32 -12 -16 -61 -22 -98 -15 -98 13 0 39 -104 28 -111 -6 -3 -5 -10 4 -17 20 -17 16 -88 -5 -84 -8 1 -23 -7 -33 -18 -25 -27 -66 -133 -56 -143 4 -4 29 -13 55 -20 l48 -12 -1 -205 c-1 -253 -11 -431 -23 -447 -6 -7 -7 -38 -4 -70 8 -74 8 -105 0 -170 -6 -51 -7 -53 -37 -53 l-32 0 3 -85 c3 -73 6 -85 23 -90 32 -11 26 -69 -11 -95 -16 -12 -30 -30 -30 -39 0 -10 -7 -24 -15 -31 -13 -11 -14 -43 -11 -209 4 -185 3 -198 -17 -226 -11 -16 -21 -31 -22 -33 -1 -1 -9 0 -18 4 -8 3 -25 29 -37 58 -33 81 -127 155 -209 164 -44 5 -45 4 -28 -13 10 -9 35 -21 57 -26 50 -11 127 -63 151 -103 10 -17 26 -54 35 -83 9 -29 21 -53 25 -53 5 0 15 -13 24 -30 11 -21 23 -30 40 -30 32 0 49 -32 40 -77 -7 -39 9 -130 31 -171 8 -15 16 -43 20 -62 11 -71 15 -81 49 -116 19 -20 35 -40 35 -45 0 -5 17 -16 38 -25 45 -19 97 -13 127 16 12 11 26 20 32 20 18 0 40 34 47 73 4 20 15 45 25 55 11 9 21 26 23 37 3 18 12 20 78 22 72 1 76 0 99 -29 23 -28 24 -33 12 -72 -6 -22 -13 -48 -14 -56 -3 -21 64 -25 102 -6 16 9 40 16 53 16 26 1 80 46 127 107 24 32 31 48 25 65 -12 42 -24 49 -73 42 -40 -5 -52 -2 -89 22 l-42 28 0 117 c0 91 3 119 15 129 8 7 15 23 15 36 0 12 5 26 10 29 6 3 10 15 10 25 0 11 20 44 45 74 24 30 47 67 51 82 11 42 -16 163 -40 180 -26 18 -56 17 -80 -1 -46 -34 -79 -4 -71 63 4 26 8 74 10 107 2 33 9 94 14 135 6 41 16 127 21 190 6 63 17 158 25 210 19 119 19 102 -2 192 -15 69 -16 91 -5 200 7 68 12 138 12 156 0 18 8 42 18 52 16 18 17 26 8 72 -6 29 -14 58 -18 64 -4 6 -1 31 7 56 7 26 11 48 9 51 -3 3 -1 13 4 24 25 48 44 126 39 161 -16 108 -23 117 -95 145 -60 24 -543 25 -562 2z m302 -596 c14 0 29 -7 32 -16 8 -20 -20 -194 -38 -238 -8 -18 -17 -67 -21 -109 -4 -42 -11 -76 -16 -76 -23 0 -42 71 -50 190 -16 223 -16 245 -12 253 3 5 22 6 42 3 20 -4 48 -7 63 -7z"/>
 <path d="M9600 5548 c-19 -5 -51 -25 -70 -44 -27 -26 -39 -31 -47 -23 -20 20 -59 -14 -66 -55 -3 -19 -1 -79 4 -133 5 -54 16 -168 24 -253 8 -86 20 -171 26 -189 13 -36 7 -140 -10 -183 -9 -25 -15 -28 -61 -28 -38 0 -50 4 -50 15 0 20 -41 19 -84 -2 l-36 -18 6 -135 c2 -74 7 -152 9 -172 6 -44 0 -49 -74 -57 l-56 -6 -19 -74 c-16 -63 -17 -80 -6 -105 6 -17 16 -56 21 -86 11 -69 30 -130 40 -130 4 0 12 -15 19 -34 6 -18 26 -51 45 -74 19 -22 35 -44 35 -49 0 -4 25 -53 56 -108 31 -55 66 -118 78 -141 38 -73 71 -104 110 -104 41 0 56 -20 56 -74 0 -48 48 -193 74 -222 13 -16 34 -26 57 -28 20 -2 41 -6 47 -10 6 -4 37 7 69 23 56 28 59 32 73 83 8 34 14 112 14 214 1 158 1 161 29 202 15 23 40 81 56 130 31 95 70 180 106 228 38 50 112 180 124 217 7 20 18 40 25 46 7 6 21 29 31 51 17 37 17 41 1 65 -9 13 -20 42 -24 62 -7 31 -12 38 -33 38 -13 0 -30 4 -36 8 -8 5 -13 4 -13 -2 0 -6 -9 -11 -20 -11 -11 0 -20 -4 -20 -10 0 -5 8 -10 18 -10 26 0 34 -11 20 -27 -8 -10 -8 -17 0 -25 7 -7 12 -31 12 -55 0 -37 -6 -50 -49 -97 -52 -57 -97 -127 -115 -179 -17 -48 -86 -167 -97 -167 -6 0 -9 33 -7 78 2 48 -1 81 -8 87 -7 6 -9 26 -7 48 4 31 13 43 43 62 58 37 62 81 14 177 -13 26 -24 52 -24 57 0 10 -62 140 -100 211 -11 19 -19 43 -20 53 0 26 -28 124 -47 169 -28 67 10 149 76 164 32 8 71 31 71 43 0 15 -40 26 -110 32 -38 3 -60 -3 -94 -26 -45 -30 -56 -31 -56 -4 0 18 -4 20 -26 15 -26 -7 -26 -6 -19 26 5 18 9 51 8 73 0 40 -26 227 -38 276 -6 22 2 33 61 85 106 93 104 90 82 112 -14 14 -49 14 -98 0z m-362 -1365 c-12 -94 -30 -173 -38 -173 -4 0 -15 12 -25 26 -20 32 -13 74 22 126 18 26 23 45 19 62 -4 15 -1 26 7 29 22 8 23 -1 15 -70z"/>
 <path d="M7025 5517 c-10 -16 -14 -34 -10 -50 4 -14 1 -35 -5 -47 -10 -19 -17 -21 -48 -15 -21 4 -59 7 -87 8 -42 2 -51 6 -62 27 -23 49 -64 77 -121 82 -35 4 -55 1 -60 -7 -4 -7 -23 -15 -42 -18 -102 -17 -174 -37 -182 -51 -6 -10 -23 -16 -46 -16 -41 0 -83 -18 -90 -37 -2 -8 5 -13 16 -13 10 0 19 -7 19 -15 0 -8 -7 -15 -15 -15 -25 0 -41 -33 -42 -82 0 -61 21 -149 37 -155 16 -6 17 -43 2 -43 -6 0 -9 -9 -6 -20 3 -13 -1 -24 -14 -30 -27 -15 -24 -43 13 -117 31 -63 31 -66 15 -96 -9 -18 -17 -41 -19 -52 -3 -17 -11 -20 -58 -20 l-55 0 -3 -42 c-2 -31 5 -57 29 -103 17 -33 31 -73 31 -88 0 -40 52 -145 93 -185 19 -19 35 -39 35 -46 0 -12 33 -62 58 -89 10 -11 9 -18 -3 -35 -8 -12 -15 -33 -15 -47 0 -36 64 -96 111 -104 20 -4 44 -15 54 -26 28 -31 102 -27 159 7 43 26 56 46 56 89 0 13 12 26 34 37 35 16 53 40 50 67 -1 8 -2 22 -3 31 0 9 -14 32 -31 50 -25 29 -29 40 -23 69 3 19 10 37 14 38 5 2 9 14 9 26 0 30 10 39 27 24 14 -12 25 -4 36 27 2 6 12 3 23 -6 10 -8 37 -26 59 -38 37 -22 40 -22 52 -4 6 10 20 26 29 35 16 17 14 19 -37 43 -30 13 -64 25 -76 25 -16 0 -23 6 -23 20 0 11 -8 24 -17 27 -23 8 -43 37 -65 88 -22 53 -22 68 3 80 13 7 40 54 76 135 93 213 102 228 143 236 19 4 40 8 46 10 25 5 54 40 54 65 0 15 5 29 10 31 7 2 5 17 -5 41 -15 36 -15 40 4 66 31 43 90 78 161 96 36 9 72 23 82 32 22 20 54 0 69 -44 10 -31 7 -122 -6 -154 -4 -10 0 -19 9 -22 22 -9 20 -43 -3 -59 -21 -15 -51 -69 -51 -93 0 -9 -4 -21 -10 -28 -15 -19 -80 -149 -80 -161 0 -6 -11 -23 -24 -38 -28 -34 -74 -37 -101 -8 -13 14 -27 18 -57 16 -38 -3 -81 6 -120 25 -10 5 -31 9 -47 9 -32 0 -31 1 -45 -98 -2 -13 4 -28 14 -35 25 -18 50 -72 50 -110 0 -18 4 -37 9 -42 5 -6 11 -21 13 -34 2 -13 23 -41 49 -63 43 -37 51 -39 118 -42 60 -3 71 -1 71 14 0 26 21 40 61 40 21 0 40 4 43 9 3 5 18 11 33 13 16 3 36 8 45 13 15 6 17 1 11 -43 -4 -40 -1 -57 17 -90 22 -39 23 -48 18 -195 -4 -115 -2 -164 8 -193 17 -48 17 -44 0 -44 -21 0 -27 -30 -16 -70 6 -19 8 -57 4 -85 -3 -27 0 -72 6 -99 8 -39 8 -51 -2 -58 -8 -5 -19 -1 -28 10 -15 18 -16 18 -33 -5 -10 -13 -19 -31 -19 -41 -1 -45 24 -207 38 -245 24 -62 35 -237 16 -259 -8 -9 -66 -33 -130 -53 -139 -43 -158 -51 -192 -87 -14 -15 -61 -45 -105 -67 -44 -21 -99 -53 -122 -70 -38 -27 -41 -34 -37 -63 5 -25 1 -38 -15 -52 -19 -17 -40 -22 -122 -25 -23 -1 -28 -8 -40 -53 -12 -44 -18 -53 -38 -54 -23 -1 -41 -18 -41 -40 0 -6 -11 -20 -25 -32 -14 -12 -25 -28 -25 -37 0 -15 -46 -31 -112 -39 -47 -6 -58 -12 -58 -36 0 -23 17 -35 33 -22 19 15 101 32 152 32 26 0 61 7 79 15 26 12 31 21 31 47 0 31 2 33 36 33 30 0 48 10 103 60 37 33 92 75 122 93 30 19 54 38 54 43 0 5 9 9 20 9 11 0 20 4 20 8 0 5 19 15 43 22 56 16 167 71 167 82 0 4 16 8 35 8 19 0 56 7 82 16 39 13 57 14 93 6 97 -23 141 -25 161 -6 10 9 22 15 25 11 3 -3 7 -60 10 -126 3 -112 2 -121 -16 -131 -40 -22 -15 -110 31 -110 8 0 25 -7 38 -16 17 -13 36 -15 74 -11 100 12 154 89 129 184 -7 24 -12 58 -12 77 0 18 -7 39 -15 46 -8 7 -15 19 -15 27 0 27 80 82 80 56 0 -5 5 -15 10 -23 8 -12 14 -10 39 18 25 27 37 32 73 32 24 0 49 5 56 12 9 9 32 8 97 -1 47 -7 88 -17 91 -22 3 -5 13 -9 24 -9 10 0 20 -6 23 -13 3 -7 39 -26 81 -42 42 -16 76 -32 76 -36 0 -4 14 -10 30 -14 17 -4 30 -10 30 -13 0 -4 30 -26 68 -49 37 -24 93 -70 126 -103 49 -50 64 -60 93 -60 39 0 51 -19 35 -56 -10 -21 -9 -24 8 -24 10 0 21 -4 24 -9 3 -4 49 -11 103 -15 54 -4 112 -8 128 -9 25 -2 29 1 27 18 -5 26 -7 28 -42 30 -16 1 -43 2 -58 3 -16 1 -37 11 -48 23 -10 11 -31 32 -46 47 -14 15 -28 36 -30 47 -2 12 -11 20 -23 20 -15 0 -24 12 -35 48 -13 42 -20 51 -53 62 -21 7 -46 11 -56 8 -30 -8 -71 25 -71 56 0 32 -11 43 -149 142 -141 101 -153 109 -174 109 -10 0 -52 16 -93 36 -42 20 -99 44 -128 53 l-51 18 1 84 c0 46 4 167 8 269 7 187 0 247 -23 187 -13 -34 -24 -34 -45 -2 -9 14 -24 25 -32 25 -11 0 -14 5 -9 18 4 9 8 47 10 83 2 36 10 101 18 145 9 46 13 114 11 164 -2 47 -6 173 -10 280 l-6 196 74 -4 c72 -4 108 -20 108 -47 0 -7 7 -18 15 -25 8 -7 15 -21 15 -32 0 -10 9 -28 19 -39 11 -12 18 -30 16 -40 -2 -10 0 -19 6 -19 5 0 9 -14 9 -32 0 -17 7 -40 17 -50 22 -25 19 -70 -10 -127 -34 -70 -38 -193 -6 -227 14 -15 20 -30 16 -44 -6 -24 45 -90 69 -90 21 0 30 -31 25 -90 -2 -43 -7 -53 -27 -62 -13 -6 -34 -31 -46 -55 -12 -24 -29 -51 -38 -61 -9 -9 -17 -20 -17 -25 -14 -77 -14 -100 1 -131 9 -19 16 -42 16 -53 1 -29 83 -73 136 -73 24 0 44 3 44 8 0 4 20 28 43 53 32 34 47 61 56 101 13 54 13 57 -13 90 -29 38 -32 64 -12 91 14 18 71 24 81 7 3 -5 33 -10 66 -10 33 0 59 4 59 10 0 6 6 10 14 10 8 0 19 13 24 29 6 16 19 32 30 35 12 4 27 26 37 54 10 26 28 58 41 73 13 14 24 32 24 41 0 9 7 29 15 44 8 16 15 36 15 46 0 9 12 39 27 67 20 40 24 56 16 74 -17 39 3 355 25 394 8 14 12 69 12 156 0 133 0 135 34 201 34 67 46 121 47 211 0 32 6 57 17 68 31 34 33 95 4 132 -26 32 -27 41 -8 77 9 17 12 42 9 68 -4 30 -1 45 12 60 13 14 16 28 11 55 l-7 35 -89 0 c-53 0 -90 -4 -90 -10 0 -6 -46 -10 -119 -10 -69 0 -122 -4 -126 -10 -3 -5 -19 -10 -36 -10 -22 0 -29 -5 -29 -19 0 -11 8 -22 18 -25 34 -11 65 -54 64 -87 -1 -40 -36 -115 -62 -131 -11 -7 -20 -23 -20 -35 0 -13 -4 -23 -8 -23 -10 0 -10 -1 -18 -95 -4 -38 -10 -75 -15 -81 -5 -7 -9 -45 -9 -85 1 -86 -8 -157 -21 -165 -5 -3 -9 -15 -9 -28 0 -14 -9 -28 -24 -35 -20 -11 -30 -10 -66 8 -44 21 -90 28 -90 13 0 -5 -16 -8 -35 -8 -19 1 -35 4 -35 9 0 4 -10 7 -21 7 -19 0 -20 4 -14 33 3 17 6 43 5 57 -11 252 -11 257 4 270 9 7 16 22 16 34 0 13 11 33 24 45 27 26 35 54 41 160 3 41 10 79 15 86 10 12 1 55 -19 94 -15 28 -64 28 -92 0 -22 -22 -22 -22 29 -77 12 -15 22 -38 22 -55 0 -36 -20 -97 -33 -97 -4 0 -6 -4 -2 -9 7 -12 -53 -81 -70 -81 -7 0 -25 -24 -40 -52 -32 -62 -61 -97 -92 -109 -16 -6 -23 -17 -23 -37 0 -29 -16 -52 -36 -52 -15 0 -22 39 -30 171 -6 95 -5 109 9 109 13 0 15 15 14 98 l-2 99 45 41 44 42 -121 0 -121 0 -5 -62 c-5 -69 -20 -149 -35 -188 -7 -18 -6 -28 4 -35 10 -7 15 -37 17 -90 l2 -80 -25 3 c-14 2 -29 8 -35 12 -5 4 -50 9 -99 9 -49 1 -91 2 -92 4 -1 1 -4 32 -6 70 -3 59 -2 67 14 67 23 0 23 22 -2 100 -11 35 -20 90 -20 125 l0 62 -86 6 c-48 3 -90 10 -93 16 -5 7 -19 5 -46 -9 l-39 -20 -44 25 c-38 21 -62 26 -167 31 -123 6 -123 6 -140 -19z m2006 -69 c42 -24 60 -67 52 -128 -5 -34 -11 -43 -39 -56 -35 -17 -37 -24 -48 -119 -7 -66 -15 -109 -25 -130 -5 -11 -17 -39 -26 -62 -10 -24 -22 -43 -26 -43 -4 0 -13 -17 -20 -37 -16 -50 -27 -63 -55 -63 -21 0 -24 5 -25 43 0 23 -2 56 -3 72 -2 17 5 45 15 63 14 24 19 55 20 115 0 45 5 97 11 115 7 23 7 42 0 60 -22 56 -23 125 -2 159 18 30 23 32 77 32 39 -1 70 -8 94 -21z m-546 -788 c0 -2 45 -10 65 -11 24 -3 40 -20 40 -45 0 -12 7 -29 15 -38 24 -24 19 -89 -10 -116 -20 -19 -25 -33 -27 -94 -3 -67 -4 -71 -30 -80 -20 -7 -35 -6 -53 4 -21 11 -25 21 -25 55 0 24 -6 48 -14 54 -7 6 -16 24 -19 39 -6 25 -78 112 -93 112 -4 0 -15 7 -25 16 -20 18 -15 40 13 65 10 9 15 19 12 22 -15 15 10 22 78 20 40 -1 73 -3 73 -3z m-695 -40 c0 -5 20 -10 45 -10 49 0 49 0 36 -50 -5 -19 -12 -62 -15 -95 -6 -67 -23 -125 -37 -125 -6 0 -9 -6 -8 -12 3 -28 -2 -38 -20 -38 -28 0 -41 22 -48 81 -3 30 -12 65 -21 79 -19 29 -44 150 -31 150 5 0 6 7 3 15 -5 12 4 15 45 15 28 0 51 -4 51 -10z"/>
 <path d="M7706 4577 c3 -10 9 -15 12 -12 3 3 0 11 -7 18 -10 9 -11 8 -5 -6z"/>
 <path d="M2236 4427 c3 -10 9 -15 12 -12 3 3 0 11 -7 18 -10 9 -11 8 -5 -6z"/>
 <path d="M2280 4408 c0 -4 14 -36 30 -70 17 -34 28 -69 24 -78 -4 -12 -8 -10 -19 10 -8 14 -14 21 -14 15 0 -5 6 -21 14 -35 8 -14 14 -34 15 -45 0 -11 7 -33 15 -49 8 -15 15 -35 15 -42 0 -18 29 -64 40 -64 22 0 38 135 17 143 -14 5 -34 37 -103 162 -19 33 -34 57 -34 53z"/>
 <path d="M2260 4371 c0 -6 4 -13 10 -16 6 -3 7 1 4 9 -7 18 -14 21 -14 7z"/>
 <path d="M11923 1483 c2 -93 -5 -114 -17 -45 -3 22 -13 54 -21 73 l-16 34 6 -65 c3 -36 8 -78 11 -95 10 -45 -10 -18 -25 35 -7 25 -19 56 -27 70 -12 23 -13 23 -14 4 0 -11 7 -44 16 -73 8 -29 13 -56 10 -59 -3 -3 -6 0 -6 6 0 7 -4 12 -10 12 -5 0 -10 -7 -10 -17 0 -29 119 -244 215 -388 99 -147 127 -214 106 -253 -15 -29 -15 -29 23 -42 48 -15 71 -71 115 -275 31 -145 120 -379 137 -362 3 3 -2 22 -11 42 -22 54 -12 55 19 2 31 -52 66 -88 66 -66 0 8 -9 28 -20 44 -34 51 -22 49 29 -7 27 -29 52 -50 55 -47 4 3 -9 29 -28 58 -19 28 -32 51 -29 51 3 0 29 -21 56 -47 32 -30 52 -42 55 -34 5 14 -35 61 -52 61 -6 0 -16 11 -23 25 -9 20 -8 25 2 25 8 0 17 -4 20 -10 10 -16 28 -12 21 5 -4 10 1 15 14 15 23 0 26 20 8 38 -10 10 -10 15 1 21 9 6 11 15 6 27 -4 11 -7 40 -7 66 1 26 -3 50 -8 53 -6 3 -6 15 0 29 5 13 6 27 2 30 -6 7 -10 28 -15 91 -4 46 -22 95 -36 95 -5 0 -7 9 -4 20 3 11 0 20 -6 20 -6 0 -11 8 -11 18 0 9 -9 34 -20 55 -32 60 -28 71 45 101 73 32 80 38 90 84 5 25 3 32 -9 32 -8 0 -13 6 -10 13 2 7 -9 17 -28 25 -30 11 -37 9 -101 -28 l-68 -39 -20 45 c-10 25 -17 50 -13 55 3 5 -3 13 -13 17 -10 4 -19 18 -21 31 -1 13 -11 36 -23 52 -11 16 -18 29 -14 29 3 0 -8 13 -25 30 -16 16 -30 32 -30 36 0 4 -11 17 -25 30 -14 12 -33 38 -43 56 -12 20 -26 32 -36 30 -9 -2 -16 4 -16 12 0 9 -9 21 -20 28 -11 7 -20 19 -20 26 0 7 -11 17 -24 22 -13 5 -27 18 -31 30 -5 15 -12 19 -26 15 -13 -4 -19 -2 -19 9 0 9 -4 16 -10 16 -5 0 -10 -18 -10 -40 0 -62 -17 -47 -29 25 -20 113 -31 120 -28 18z"/>
 </g>
<g id="layer2" fill="#fcfcfc" stroke="none">
 <path d="M0 3005 l0 -3005 8000 0 8000 0 0 3005 0 3005 -8000 0 -8000 0 0 -3005z m11914 2893 c64 -65 146 -168 146 -183 0 -19 54 -85 69 -86 9 0 34 -11 56 -23 38 -20 40 -24 38 -64 -1 -23 -9 -55 -19 -70 -15 -27 -15 -30 2 -62 11 -18 25 -44 33 -57 16 -31 48 -63 61 -63 6 0 10 -3 11 -7 2 -27 10 -48 28 -84 12 -22 21 -46 21 -54 0 -8 7 -36 16 -62 9 -26 16 -73 15 -105 -1 -63 11 -79 72 -93 47 -12 56 -37 55 -151 l-2 -103 43 -38 c40 -36 43 -43 51 -108 5 -38 14 -90 20 -115 13 -51 7 -215 -16 -410 -18 -162 -40 -251 -77 -324 -26 -50 -31 -70 -29 -120 2 -41 9 -69 21 -86 l19 -26 -39 -33 c-41 -34 -79 -97 -79 -130 0 -12 -12 -34 -27 -51 l-28 -31 -69 10 c-38 5 -73 14 -78 19 -5 5 -11 33 -15 63 -3 31 -16 69 -30 89 -12 19 -23 45 -23 58 0 30 -27 82 -43 82 -21 0 -41 -43 -47 -100 -5 -51 -8 -56 -49 -84 l-43 -29 6 -51 c4 -28 10 -85 15 -126 14 -122 31 -179 72 -244 21 -33 36 -62 33 -65 -2 -3 -11 5 -20 17 -19 27 -40 28 -56 2 -10 -15 -24 -20 -55 -20 -25 0 -43 5 -43 11 0 6 -6 9 -12 6 -7 -2 -24 -7 -38 -11 l-25 -7 26 23 c15 13 37 43 49 67 24 49 23 74 -8 161 -23 66 -34 135 -36 240 -1 68 -5 82 -29 114 -24 31 -28 44 -25 89 3 46 6 52 26 55 13 2 22 9 19 15 -2 7 0 41 4 77 7 47 18 77 39 107 29 40 30 45 24 115 -4 40 -10 78 -14 83 -15 20 -18 134 -5 192 19 89 30 108 79 139 39 25 45 34 46 64 0 19 -9 53 -19 75 -62 128 -78 194 -86 357 -5 119 -20 188 -44 202 -5 3 -23 -10 -39 -29 -17 -19 -46 -41 -65 -49 -19 -8 -38 -23 -42 -34 -6 -22 -66 -47 -90 -39 -17 7 -29 -8 -44 -55 -13 -38 -41 -58 -103 -72 -22 -5 -35 0 -64 26 -33 31 -35 38 -40 109 -6 77 2 106 49 172 9 13 9 21 0 35 -19 26 -78 150 -99 207 -25 70 -67 148 -80 152 -21 7 -67 -43 -80 -88 -12 -39 -12 -45 3 -56 9 -7 34 -13 54 -13 32 0 69 -20 69 -36 0 -11 -30 -61 -43 -73 -9 -7 -13 -21 -9 -33 3 -14 1 -19 -6 -14 -7 4 -12 2 -12 -4 0 -6 -19 5 -42 24 -43 37 -78 47 -78 22 0 -19 -38 -104 -50 -111 -6 -3 -10 -21 -10 -40 0 -19 -4 -37 -10 -40 -5 -3 -10 -14 -10 -24 0 -10 -10 -33 -23 -52 -45 -67 -68 -141 -74 -231 -3 -60 -2 -88 6 -88 13 0 43 -58 66 -130 10 -30 23 -66 31 -80 7 -14 15 -37 18 -51 4 -18 19 -32 56 -49 27 -13 50 -29 50 -37 0 -7 4 -13 9 -13 10 0 25 -37 41 -100 7 -25 18 -52 25 -60 9 -10 15 -64 18 -170 3 -85 7 -177 8 -204 2 -52 4 -49 -70 -106 -33 -25 -33 -26 -19 -60 17 -43 25 -396 8 -385 -5 3 -10 0 -10 -7 0 -21 -57 -81 -69 -74 -6 4 -11 4 -10 -1 5 -32 -2 -35 -66 -31 -49 3 -70 9 -88 26 -13 12 -28 22 -34 22 -13 0 -28 38 -24 58 1 8 -5 19 -13 25 -8 7 -16 32 -18 57 -3 49 -21 61 -62 42 -39 -19 -86 -31 -146 -38 -60 -7 -60 -7 -95 32 -19 21 -37 46 -41 56 -3 10 -12 18 -20 18 -8 0 -17 6 -20 14 -3 8 -18 16 -35 20 -31 6 -129 100 -155 149 -8 16 -14 42 -12 60 3 28 8 33 48 45 31 9 79 12 152 9 l106 -5 -5 37 c-4 20 -14 55 -25 79 -10 24 -18 48 -18 54 0 6 -11 26 -25 44 -14 18 -25 37 -25 41 0 5 -13 30 -29 55 -16 25 -32 56 -36 69 -4 13 -36 77 -71 142 -35 65 -64 119 -64 121 0 2 21 11 46 22 l45 19 -7 87 -7 88 37 34 c24 24 36 44 36 63 0 15 5 46 11 68 10 36 21 96 35 180 16 104 53 293 59 308 4 10 3 17 -4 17 -7 0 -14 -6 -17 -14 -9 -24 -72 -48 -104 -41 -41 9 -38 22 8 35 49 13 136 95 127 118 -4 9 -12 42 -18 72 -7 43 -20 68 -58 115 -48 59 -49 61 -47 120 3 54 5 60 26 63 22 3 30 -12 12 -23 -16 -10 -11 -58 8 -81 14 -18 132 -84 149 -84 3 0 3 27 0 60 l-7 60 41 40 c32 31 49 40 75 40 39 0 45 -15 12 -25 -35 -11 -68 -46 -68 -71 0 -12 15 -42 33 -66 l33 -43 89 -3 c50 -1 101 -4 115 -5 22 -2 26 4 44 66 l20 67 -38 39 c-54 55 -169 99 -271 104 -35 1 -52 7 -57 18 -8 20 -79 33 -89 17 -5 -7 -25 -9 -60 -5 -34 4 -58 2 -67 -5 -10 -9 -18 -9 -34 1 -17 11 -25 10 -47 -6 -99 -70 -141 -50 -141 68 0 47 5 62 29 93 16 20 32 50 36 66 3 16 13 34 22 41 16 14 70 14 87 0 29 -22 143 -52 372 -96 39 -8 98 -24 130 -36 33 -12 88 -26 124 -31 36 -6 78 -20 95 -32 27 -19 45 -21 190 -23 213 -3 290 16 239 58 -13 11 -15 25 -11 69 5 50 10 59 57 102 l51 47 105 -4 106 -4 62 -63z m-10011 -79 c33 -9 36 -12 27 -30 -14 -26 10 -36 50 -19 42 17 98 15 121 -6 19 -17 26 -68 10 -78 -5 -3 -18 -26 -30 -51 -37 -79 -24 -145 34 -169 41 -17 44 -34 11 -65 -20 -19 -24 -35 -29 -114 -4 -51 -9 -113 -13 -139 -6 -41 -4 -49 19 -72 25 -25 25 -27 18 -123 -4 -55 -4 -103 1 -110 5 -6 6 -23 2 -37 -8 -32 16 -104 75 -227 34 -70 42 -95 30 -92 -20 6 -50 64 -83 162 -49 146 -65 122 -67 -99 0 -91 -4 -187 -7 -215 -6 -44 -10 -50 -30 -50 -31 0 -52 -56 -52 -139 0 -58 31 -204 56 -263 8 -17 14 -43 14 -58 0 -15 9 -44 20 -64 11 -20 29 -62 40 -93 19 -50 27 -60 75 -87 30 -17 64 -31 76 -31 12 0 52 -16 90 -36 117 -62 159 -153 89 -189 -45 -23 -190 -21 -281 3 -41 12 -105 24 -142 28 -62 6 -67 5 -67 -13 0 -10 7 -28 15 -39 8 -10 15 -27 15 -37 0 -11 25 -48 56 -83 l56 -63 -6 -63 c-3 -35 -5 -64 -6 -64 -2 -8 -73 -33 -100 -35 -35 -2 -64 9 -267 108 l-93 45 0 38 c0 30 -5 40 -21 45 -16 5 -32 -7 -82 -61 -34 -37 -76 -85 -94 -108 -18 -22 -51 -59 -74 -81 l-42 -40 40 52 c23 29 73 88 112 130 38 43 88 104 110 136 l41 57 -18 36 c-16 34 -16 37 1 49 11 8 17 23 15 37 -2 18 -9 23 -33 24 -16 0 -50 3 -75 7 -40 5 -373 12 -457 8 l-33 -1 0 -107 c1 -60 5 -166 11 -238 14 -168 15 -188 17 -262 2 -54 5 -63 21 -63 10 0 30 -9 44 -20 14 -11 29 -20 34 -20 5 0 37 33 72 72 35 40 73 79 85 87 14 9 10 2 -10 -20 -16 -19 -48 -56 -69 -84 -22 -27 -58 -69 -81 -93 -35 -37 -46 -43 -75 -40 -28 2 -37 10 -52 41 -12 24 -35 46 -65 63 -26 15 -71 42 -99 60 -29 19 -55 34 -58 34 -3 0 -13 8 -23 18 -10 9 -30 26 -43 37 -37 30 -129 140 -129 154 0 7 -11 29 -25 49 -14 20 -25 42 -25 48 0 6 -9 19 -20 29 -18 16 -18 19 -4 47 18 35 21 84 10 190 -8 77 -8 78 -44 95 -47 22 -51 29 -45 72 7 45 15 54 50 55 24 1 28 5 29 31 1 17 3 51 5 78 2 27 -2 52 -9 59 -18 18 -15 53 8 93 11 20 20 41 20 47 0 18 128 184 170 220 45 38 91 73 173 130 41 29 57 46 57 63 0 23 17 35 49 35 30 0 205 -193 275 -305 11 -16 28 -36 39 -44 19 -14 163 -203 170 -224 2 -6 11 -8 21 -4 15 6 17 14 12 42 -4 18 -7 125 -7 237 0 149 -4 209 -14 228 -18 33 -40 218 -32 266 4 22 11 62 16 89 6 28 10 75 10 106 1 38 6 61 16 69 11 9 15 33 15 85 0 68 3 77 34 118 57 74 55 69 71 295 2 39 10 68 20 78 11 11 14 25 10 45 -10 46 1 67 35 63 33 -4 62 19 54 41 -4 8 -9 16 -13 16 -3 1 -19 3 -35 5 -16 2 -34 11 -39 20 -8 14 -20 15 -76 10 -80 -8 -99 3 -103 56 -3 49 10 60 74 69 29 3 89 16 133 27 177 46 170 45 218 31z m792 -101 c4 -18 7 -79 7 -137 0 -85 3 -113 18 -141 11 -19 24 -46 30 -58 5 -13 30 -55 55 -93 25 -38 45 -79 45 -90 0 -26 44 -95 70 -109 11 -6 20 -17 20 -24 0 -8 16 -23 35 -35 27 -15 35 -27 35 -48 0 -38 55 -266 93 -388 43 -137 76 -210 90 -196 6 6 19 11 29 11 12 0 18 7 18 21 0 12 25 70 55 130 30 60 55 115 55 123 0 8 7 16 15 20 8 3 15 17 15 31 0 14 7 40 16 56 8 17 13 33 10 37 -3 3 -1 11 4 17 16 19 15 111 -3 200 -9 44 -16 109 -15 145 0 36 -8 106 -17 157 -17 90 -17 92 3 120 11 16 32 35 46 42 14 8 32 31 40 51 19 48 85 100 135 107 35 5 39 3 51 -26 10 -26 10 -40 0 -74 -15 -52 -56 -125 -87 -154 -25 -24 -29 -53 -13 -83 21 -39 38 -207 43 -410 2 -90 -21 -262 -45 -340 -10 -36 -23 -85 -28 -110 -4 -25 -13 -58 -18 -75 -6 -16 -20 -68 -32 -115 -12 -47 -28 -97 -36 -113 -9 -15 -16 -50 -18 -77 -2 -31 -10 -57 -21 -70 -10 -11 -19 -38 -20 -62 -1 -24 -4 -52 -6 -63 -3 -17 3 -21 46 -25 50 -5 50 -5 79 -65 29 -59 29 -61 13 -104 l-16 -44 164 -163 165 -164 55 -6 c30 -4 55 -11 55 -16 0 -5 11 -19 25 -32 16 -15 22 -29 19 -43 -3 -11 1 -34 9 -50 24 -45 -11 -86 -42 -49 -6 7 -32 16 -58 19 -26 3 -49 10 -51 16 -2 6 -9 11 -17 11 -22 0 -36 26 -27 51 8 20 2 30 -41 69 -27 25 -61 52 -74 61 -13 9 -84 73 -159 144 -144 136 -166 155 -202 174 -30 16 -52 0 -52 -38 0 -14 -9 -41 -21 -60 -15 -25 -20 -48 -18 -95 0 -33 -1 -68 -4 -76 -3 -8 -8 -35 -11 -60 -3 -25 -13 -76 -22 -115 -8 -38 -19 -92 -24 -120 -5 -27 -13 -72 -19 -100 -6 -27 -9 -55 -7 -62 6 -14 -35 -77 -67 -105 -35 -29 -86 -48 -133 -48 -24 0 -44 3 -44 8 0 4 -19 18 -41 32 -41 25 -79 85 -79 123 0 11 -15 52 -34 91 -19 39 -41 96 -50 126 -10 36 -30 70 -56 99 -45 49 -46 52 -23 91 15 27 15 33 0 102 -9 40 -21 105 -27 143 -6 39 -18 109 -27 156 -22 112 -13 150 37 161 19 4 72 8 118 10 45 2 82 6 82 10 0 8 -64 58 -74 58 -9 0 -76 54 -127 103 -22 20 -44 35 -49 32 -15 -9 -24 44 -12 70 13 29 56 43 77 25 22 -18 119 5 138 33 32 49 69 77 93 71 23 -6 24 -4 24 52 0 33 3 129 6 215 8 193 -3 254 -56 324 -72 97 -112 165 -125 216 -8 28 -20 58 -28 68 -14 15 -57 96 -92 174 -13 27 -16 53 -13 95 3 31 2 69 -3 85 -4 15 -4 41 1 58 9 32 69 106 82 102 4 -2 8 2 8 7 0 6 11 10 24 10 19 0 26 -7 31 -32z m11629 -41 c14 -20 26 -85 40 -202 13 -116 59 -275 90 -314 15 -19 37 -81 41 -114 2 -16 8 -40 13 -55 6 -15 13 -52 16 -82 7 -75 13 -102 35 -158 10 -26 21 -68 25 -94 5 -34 12 -48 23 -48 13 0 14 12 9 88 -4 48 -11 121 -17 162 -11 84 -11 74 -3 225 6 125 -11 347 -31 417 l-14 47 38 33 c21 18 46 46 56 61 10 15 31 35 46 43 35 18 108 18 132 -1 29 -21 13 -49 -47 -79 -55 -28 -87 -74 -88 -127 -1 -62 86 -344 110 -359 9 -5 14 -10 10 -10 -4 0 2 -20 13 -45 11 -25 18 -53 15 -63 -3 -9 1 -30 9 -46 9 -17 12 -37 8 -50 -13 -39 -2 -127 24 -177 13 -27 35 -97 48 -155 13 -58 29 -111 34 -118 11 -13 27 -96 39 -206 4 -36 6 -141 4 -235 -4 -215 -4 -208 -19 -224 -10 -10 -11 -17 -3 -26 17 -21 8 -77 -18 -105 -24 -27 -24 -46 2 -44 18 2 32 -36 22 -61 -3 -9 1 -18 8 -21 24 -9 40 -64 39 -133 -1 -72 9 -88 42 -67 25 17 225 86 247 86 9 0 36 10 60 21 86 43 118 52 258 70 52 7 102 18 110 24 17 14 98 35 132 35 17 0 27 -10 40 -37 10 -25 12 -40 6 -44 -6 -4 -8 -13 -6 -20 7 -22 -14 -38 -33 -26 -24 15 -50 2 -42 -20 4 -10 14 -23 22 -30 31 -24 -8 -13 -64 18 -46 25 -64 30 -93 24 -56 -9 -166 -53 -189 -74 -30 -28 -93 -58 -138 -66 -46 -9 -90 -31 -123 -62 -12 -13 -27 -23 -32 -23 -13 0 -103 -98 -112 -121 -4 -10 -25 -23 -47 -30 -23 -7 -41 -15 -41 -19 0 -4 -21 -15 -47 -25 -27 -10 -57 -24 -68 -32 -11 -7 -27 -13 -36 -13 -24 0 -69 -39 -69 -59 0 -10 12 -28 26 -40 21 -18 25 -29 20 -51 -8 -42 18 -96 49 -104 36 -9 65 -41 65 -73 0 -18 -13 -39 -43 -67 -36 -35 -54 -44 -122 -59 -112 -24 -134 -24 -181 3 -32 18 -48 38 -73 91 -32 68 -33 69 -18 119 9 29 14 85 13 133 -1 73 -3 82 -21 85 -11 3 -24 11 -28 19 -5 8 -18 13 -30 12 -28 -3 -67 9 -85 27 -7 8 -22 14 -32 14 -11 0 -34 7 -53 16 -29 14 -34 22 -45 80 -7 35 -12 72 -12 83 0 11 -13 44 -30 74 -20 36 -31 73 -34 114 -3 33 -10 72 -16 87 -15 40 -16 121 -2 139 13 15 112 45 167 49 28 3 30 6 37 53 4 28 9 66 12 85 6 35 -11 100 -26 100 -4 0 -8 11 -8 25 0 25 14 33 25 15 9 -15 35 -12 35 5 0 8 -9 19 -20 25 -22 12 -27 46 -7 53 9 4 9 8 -1 23 -6 11 -17 30 -24 44 -7 14 -19 33 -27 43 -8 9 -15 25 -16 35 -7 64 -44 132 -73 132 -16 1 -15 2 1 11 9 5 17 16 17 23 0 8 7 17 16 20 13 5 15 15 11 45 -2 21 -1 44 3 52 5 8 2 66 -6 129 -9 75 -11 124 -5 141 6 18 5 31 -2 39 -9 10 -9 14 1 17 14 6 16 49 2 58 -18 11 -10 30 20 47 18 10 30 25 30 38 0 22 -7 24 -44 10 -24 -9 -25 -7 -34 33 -5 23 -7 94 -5 157 4 132 4 125 -2 205 -5 79 -10 106 -22 130 -6 11 -13 35 -17 54 -3 19 -18 49 -32 68 -30 40 -48 88 -40 108 4 12 25 15 95 15 83 0 92 -2 105 -23z m-9856 -44 c6 -9 12 -27 12 -39 0 -12 11 -44 24 -71 23 -45 24 -53 15 -133 -15 -134 -32 -332 -32 -370 0 -47 17 -103 37 -126 56 -63 86 -101 92 -116 3 -10 10 -18 15 -18 5 0 9 -4 9 -9 0 -5 5 -22 12 -38 6 -15 11 -31 10 -35 -1 -3 6 -48 14 -100 9 -52 15 -146 14 -214 -1 -135 6 -154 59 -154 32 0 54 -20 46 -41 -2 -8 9 -29 25 -46 29 -32 33 -33 105 -33 58 0 77 4 81 15 4 8 15 15 25 15 15 0 19 7 19 34 0 46 20 62 57 44 27 -13 28 -15 26 -92 -1 -43 -7 -92 -13 -110 -6 -17 -13 -78 -16 -136 -3 -58 -12 -125 -21 -150 -25 -74 -53 -128 -68 -134 -8 -3 -15 -16 -15 -29 0 -13 -4 -27 -9 -33 -4 -5 -14 -31 -21 -59 -7 -27 -19 -59 -27 -70 -7 -11 -13 -28 -13 -38 0 -11 -13 -24 -35 -33 -20 -8 -38 -21 -42 -29 -3 -8 -11 -15 -18 -15 -19 0 -109 -41 -117 -54 -12 -18 -9 -44 8 -60 8 -9 11 -16 6 -16 -13 0 -32 -50 -30 -80 4 -58 -3 -98 -22 -120 -11 -13 -20 -27 -20 -32 0 -4 -16 -8 -35 -8 -20 0 -50 -7 -66 -16 -28 -14 -33 -14 -57 2 -15 9 -42 33 -60 52 -32 33 -35 34 -88 28 -69 -8 -70 7 -2 32 l52 20 1 90 1 91 -55 12 c-30 6 -64 15 -75 19 -12 5 -32 11 -46 14 -18 4 -32 20 -47 54 -12 26 -40 85 -63 132 -22 47 -40 92 -40 101 0 9 -6 22 -14 28 -16 14 -32 70 -47 166 -5 38 -17 77 -25 86 -10 11 -14 43 -14 122 0 93 -2 108 -18 118 -16 10 -17 18 -9 63 6 28 15 54 21 58 22 15 47 8 56 -16 4 -13 19 -26 33 -29 13 -4 29 -18 35 -32 8 -17 19 -25 37 -25 62 0 79 34 50 103 -19 45 -26 426 -9 448 21 26 45 155 34 183 -7 21 -6 26 5 26 20 0 19 26 -1 34 -14 5 -15 15 -10 55 6 45 4 51 -22 73 -16 13 -38 37 -48 54 -26 39 -60 69 -117 102 -36 21 -50 36 -59 64 -10 33 -8 41 17 84 28 47 29 78 9 158 -4 18 -1 26 13 30 10 4 30 27 45 51 25 41 31 45 65 45 70 0 70 0 47 -163 -4 -31 -2 -56 6 -71 13 -26 103 -71 120 -61 5 3 10 33 10 66 0 32 4 59 9 59 12 0 24 82 22 156 -2 63 1 67 59 88 25 9 74 -3 88 -21z m8923 -39 c18 -16 16 -20 -32 -89 -27 -40 -59 -81 -69 -90 -11 -10 -20 -25 -20 -34 0 -9 -6 -25 -13 -36 -21 -30 -36 -101 -42 -193 -3 -46 -12 -96 -20 -112 -19 -36 -19 -122 -1 -163 7 -18 19 -47 26 -64 8 -21 19 -33 31 -33 20 0 26 29 9 46 -6 6 -6 22 0 44 6 19 10 58 10 86 0 38 5 55 20 69 19 17 21 17 54 -9 48 -36 60 -84 57 -231 -3 -163 -3 -174 5 -222 5 -36 3 -44 -12 -50 -29 -10 -30 -15 -21 -110 15 -169 12 -200 -30 -323 -21 -62 -27 -116 -14 -124 6 -4 11 -26 11 -50 0 -23 4 -46 10 -52 5 -5 14 -34 20 -64 6 -30 17 -61 24 -69 8 -7 38 -15 68 -16 29 -1 67 -6 83 -9 49 -12 189 -57 205 -67 8 -5 45 -24 81 -43 140 -74 255 -189 318 -321 66 -137 74 -177 68 -322 -5 -146 -28 -229 -97 -343 -196 -332 -638 -432 -968 -220 -43 27 -90 63 -106 79 -18 19 -40 31 -55 31 -14 0 -31 4 -38 8 -19 12 -33 60 -27 92 4 17 1 36 -5 44 -22 26 -61 160 -72 245 -10 71 -9 104 4 185 9 55 14 103 12 106 -24 38 -20 414 4 443 6 8 8 17 5 20 -13 12 -4 96 15 153 11 33 23 82 27 109 3 28 11 58 16 68 10 19 -9 157 -23 167 -14 10 -40 86 -45 135 -3 27 -8 53 -10 57 -11 18 -5 139 9 169 8 19 18 50 21 69 4 19 20 62 36 95 16 34 31 85 35 115 3 30 12 61 20 70 24 27 29 87 10 135 -9 25 -14 49 -11 54 8 12 -17 165 -40 246 -9 33 -20 76 -24 95 -3 19 -17 54 -29 78 -35 69 -4 87 92 50 26 -10 27 -12 27 -92 0 -69 4 -90 28 -136 15 -30 34 -55 42 -55 8 0 32 25 52 55 29 43 37 65 38 101 0 32 7 55 25 79 14 19 25 41 25 50 0 9 20 37 45 63 37 39 51 47 82 47 20 0 45 -7 54 -16z m-7299 -51 c72 -28 79 -37 95 -145 5 -35 -14 -113 -39 -161 -5 -11 -7 -21 -4 -24 2 -3 -2 -25 -9 -51 -8 -25 -11 -50 -7 -56 4 -6 12 -35 18 -64 9 -46 8 -54 -8 -72 -10 -10 -18 -34 -18 -52 0 -18 -5 -88 -12 -156 -11 -109 -10 -131 5 -200 21 -90 21 -73 2 -192 -8 -52 -19 -147 -25 -210 -5 -63 -15 -149 -21 -190 -5 -41 -12 -102 -14 -135 -2 -33 -6 -81 -10 -107 -8 -67 25 -97 71 -63 24 18 54 19 80 1 24 -17 51 -138 40 -180 -4 -15 -27 -52 -51 -82 -25 -30 -45 -63 -45 -74 0 -10 -4 -22 -10 -25 -5 -3 -10 -17 -10 -29 0 -13 -7 -29 -15 -36 -12 -10 -15 -38 -15 -129 l0 -117 42 -28 c37 -24 49 -27 89 -22 49 7 61 0 73 -42 6 -17 -1 -33 -25 -65 -47 -61 -101 -106 -127 -107 -13 0 -37 -7 -53 -16 -38 -19 -105 -15 -102 6 1 8 8 34 14 56 12 39 11 44 -12 72 -23 29 -27 30 -99 29 -66 -2 -75 -4 -78 -22 -2 -11 -12 -28 -23 -37 -10 -10 -21 -35 -25 -55 -7 -39 -29 -73 -47 -73 -6 0 -20 -9 -32 -20 -30 -29 -82 -35 -127 -16 -21 9 -38 20 -38 25 0 5 -16 25 -35 45 -34 35 -38 45 -49 116 -4 19 -12 47 -20 62 -22 41 -38 132 -31 171 9 45 -8 77 -40 77 -17 0 -29 9 -40 30 -9 17 -19 30 -24 30 -4 0 -16 24 -25 53 -9 29 -25 66 -35 83 -24 40 -101 92 -151 103 -22 5 -47 17 -57 26 -17 17 -16 18 28 13 82 -9 176 -83 209 -164 12 -29 29 -55 37 -58 9 -4 17 -5 18 -4 1 2 11 17 22 33 20 28 21 41 17 226 -3 166 -2 198 11 209 8 7 15 21 15 31 0 9 14 27 30 39 37 26 43 84 11 95 -17 5 -20 17 -23 90 l-3 85 32 0 c30 0 31 2 37 53 8 65 8 96 0 170 -3 32 -2 63 4 70 12 16 22 194 23 447 l1 205 -48 12 c-26 7 -51 16 -55 20 -10 10 31 116 56 143 10 11 25 19 33 18 21 -4 25 67 5 84 -9 7 -10 14 -4 17 11 7 -15 111 -28 111 -7 0 -1 37 15 98 2 6 16 12 32 12 16 0 35 7 42 15 19 23 502 22 562 -2z m3606 5 c22 -22 24 -19 -82 -112 -59 -52 -67 -63 -61 -85 12 -49 38 -236 38 -276 1 -22 -3 -55 -8 -73 -7 -32 -7 -33 19 -26 22 5 26 3 26 -15 0 -27 11 -26 56 4 34 23 56 29 94 26 70 -6 110 -17 110 -32 0 -12 -39 -35 -71 -43 -66 -15 -104 -97 -76 -164 19 -45 47 -143 47 -169 1 -10 9 -34 20 -53 38 -71 100 -201 100 -211 0 -5 11 -31 24 -57 48 -96 44 -140 -14 -177 -30 -19 -39 -31 -43 -62 -2 -22 0 -42 7 -48 7 -6 10 -39 8 -87 -2 -45 1 -78 7 -78 11 0 80 119 97 167 18 52 63 122 115 179 43 47 49 60 49 97 0 24 -5 48 -12 55 -8 8 -8 15 0 25 14 16 6 27 -20 27 -10 0 -18 5 -18 10 0 6 9 10 20 10 11 0 20 5 20 11 0 6 5 7 13 2 6 -4 23 -8 36 -8 21 0 26 -7 33 -38 4 -20 15 -49 24 -62 16 -24 16 -28 -1 -65 -10 -22 -24 -45 -31 -51 -7 -6 -18 -26 -25 -46 -12 -37 -86 -167 -124 -217 -36 -48 -75 -133 -106 -228 -16 -49 -41 -107 -56 -130 -28 -41 -28 -44 -29 -202 0 -102 -6 -180 -14 -214 -14 -51 -17 -55 -73 -83 -32 -16 -63 -27 -69 -23 -6 4 -27 8 -47 10 -23 2 -44 12 -57 28 -26 29 -74 174 -74 222 0 54 -15 74 -56 74 -39 0 -72 31 -110 104 -12 23 -47 86 -78 141 -31 55 -56 104 -56 108 0 5 -16 27 -35 49 -19 23 -39 56 -45 74 -7 19 -15 34 -19 34 -10 0 -29 61 -40 130 -5 30 -15 69 -21 86 -11 25 -10 42 6 105 l19 74 56 6 c74 8 80 13 74 57 -2 20 -7 98 -9 172 l-6 135 36 18 c43 21 84 22 84 2 0 -11 12 -15 50 -15 46 0 52 3 61 28 17 43 23 147 10 183 -6 18 -18 103 -26 189 -8 85 -19 199 -24 253 -5 54 -7 114 -4 133 7 41 46 75 66 55 8 -8 20 -3 47 23 49 48 140 72 168 44z m-2366 -43 l44 -25 39 20 c27 14 41 16 46 9 3 -6 45 -13 93 -16 l86 -6 0 -62 c0 -35 9 -90 20 -125 25 -78 25 -100 2 -100 -16 0 -17 -8 -14 -67 2 -38 5 -69 6 -70 1 -2 43 -3 92 -4 49 0 94 -5 99 -9 6 -4 21 -10 35 -12 l25 -3 -2 80 c-2 53 -7 83 -17 90 -10 7 -11 17 -4 35 15 39 30 119 35 188 l5 62 121 0 121 0 -44 -42 -45 -41 2 -99 c1 -83 -1 -98 -14 -98 -14 0 -15 -14 -9 -109 8 -132 15 -171 30 -171 20 0 36 23 36 52 0 20 7 31 23 37 31 12 60 47 92 109 15 28 33 52 40 52 17 0 77 69 70 81 -4 5 -2 9 2 9 13 0 33 61 33 97 0 17 -10 40 -22 55 -51 55 -51 55 -29 77 28 28 77 28 92 0 20 -39 29 -82 19 -94 -5 -7 -12 -45 -15 -86 -6 -106 -14 -134 -41 -160 -13 -12 -24 -32 -24 -45 0 -12 -7 -27 -16 -34 -15 -13 -15 -18 -4 -270 1 -14 -2 -40 -5 -57 -6 -29 -5 -33 14 -33 11 0 21 -3 21 -7 0 -5 16 -8 35 -9 19 0 35 3 35 8 0 15 46 8 90 -13 36 -18 46 -19 66 -8 15 7 24 21 24 35 0 13 4 25 9 28 13 8 22 79 21 165 0 40 4 78 9 85 5 6 11 43 15 81 8 94 8 95 18 95 4 0 8 10 8 23 0 12 9 28 20 35 26 16 61 91 62 131 1 33 -30 76 -64 87 -10 3 -18 14 -18 25 0 14 7 19 29 19 17 0 33 5 36 10 4 6 57 10 126 10 73 0 119 4 119 10 0 6 37 10 90 10 l89 0 7 -35 c5 -27 2 -41 -11 -55 -13 -15 -16 -30 -12 -60 3 -26 0 -51 -9 -68 -19 -36 -18 -45 8 -77 29 -37 27 -98 -4 -132 -11 -11 -17 -36 -17 -68 -1 -90 -13 -144 -47 -211 -34 -66 -34 -68 -34 -201 0 -87 -4 -142 -12 -156 -22 -39 -42 -355 -25 -394 8 -18 4 -34 -16 -74 -15 -28 -27 -58 -27 -67 0 -10 -7 -30 -15 -46 -8 -15 -15 -35 -15 -44 0 -9 -11 -27 -24 -41 -13 -15 -31 -47 -41 -73 -10 -28 -25 -50 -37 -54 -11 -3 -24 -19 -30 -35 -5 -16 -16 -29 -24 -29 -8 0 -14 -4 -14 -10 0 -6 -26 -10 -59 -10 -33 0 -63 5 -66 10 -10 17 -67 11 -81 -7 -20 -27 -17 -53 12 -91 26 -33 26 -36 13 -90 -9 -40 -24 -67 -56 -101 -23 -25 -43 -49 -43 -53 0 -5 -20 -8 -44 -8 -53 0 -135 44 -136 73 0 11 -7 34 -16 53 -15 31 -15 54 -1 131 0 5 8 16 17 25 9 10 26 37 38 61 12 24 33 49 46 55 20 9 25 19 27 62 5 59 -4 90 -25 90 -24 0 -75 66 -69 90 4 14 -2 29 -16 44 -32 34 -28 157 6 227 29 57 32 102 10 127 -10 10 -17 33 -17 50 0 18 -4 32 -9 32 -6 0 -8 9 -6 19 2 10 -5 28 -16 40 -10 11 -19 29 -19 39 0 11 -7 25 -15 32 -8 7 -15 18 -15 25 0 27 -36 43 -108 47 l-74 4 6 -196 c4 -107 8 -233 10 -280 2 -50 -2 -118 -11 -164 -8 -44 -16 -109 -18 -145 -2 -36 -6 -74 -10 -83 -5 -13 -2 -18 9 -18 8 0 23 -11 32 -25 21 -32 32 -32 45 2 23 60 30 0 23 -187 -4 -102 -8 -223 -8 -269 l-1 -84 51 -18 c29 -9 86 -33 128 -53 41 -20 83 -36 93 -36 21 0 33 -8 174 -109 138 -99 149 -110 149 -142 0 -31 41 -64 71 -56 10 3 35 -1 56 -8 33 -11 40 -20 53 -62 11 -36 20 -48 35 -48 12 0 21 -8 23 -20 2 -11 16 -32 30 -47 15 -15 36 -36 46 -47 11 -12 32 -22 48 -23 15 -1 42 -2 58 -3 35 -2 37 -4 42 -30 2 -17 -2 -20 -27 -18 -16 1 -74 5 -128 9 -54 4 -100 11 -103 15 -3 5 -14 9 -24 9 -17 0 -18 3 -8 24 16 37 4 56 -35 56 -29 0 -44 10 -93 60 -33 33 -89 79 -126 103 -38 23 -68 45 -68 49 0 3 -13 9 -30 13 -16 4 -30 10 -30 14 0 4 -34 20 -76 36 -42 16 -78 35 -81 42 -3 7 -13 13 -23 13 -11 0 -21 4 -24 9 -3 5 -44 15 -91 22 -65 9 -88 10 -97 1 -7 -7 -32 -12 -56 -12 -36 0 -48 -5 -73 -32 -25 -28 -31 -30 -39 -18 -5 8 -10 18 -10 23 0 26 -80 -29 -80 -56 0 -8 7 -20 15 -27 8 -7 15 -28 15 -46 0 -19 5 -53 12 -77 25 -95 -29 -172 -129 -184 -38 -4 -57 -2 -74 11 -13 9 -30 16 -38 16 -46 0 -71 88 -31 110 18 10 19 19 16 131 -3 66 -7 123 -10 126 -3 4 -15 -2 -25 -11 -20 -19 -64 -17 -161 6 -36 8 -54 7 -93 -6 -26 -9 -63 -16 -82 -16 -19 0 -35 -4 -35 -8 0 -11 -111 -66 -167 -82 -24 -7 -43 -17 -43 -22 0 -4 -9 -8 -20 -8 -11 0 -20 -4 -20 -9 0 -5 -24 -24 -54 -43 -30 -18 -85 -60 -122 -93 -55 -50 -73 -60 -103 -60 -34 0 -36 -2 -36 -33 0 -26 -5 -35 -31 -47 -18 -8 -53 -15 -79 -15 -51 0 -133 -17 -152 -32 -16 -13 -33 -1 -33 22 0 24 11 30 58 36 66 8 112 24 112 39 0 9 11 25 25 37 14 12 25 26 25 32 0 22 18 39 41 40 20 1 26 10 38 54 12 45 17 52 40 53 82 3 103 8 122 25 16 14 20 27 15 52 -4 29 -1 36 37 63 23 17 78 49 122 70 44 22 91 52 105 67 34 36 53 44 192 87 64 20 122 44 130 53 19 22 8 197 -16 259 -14 38 -39 200 -38 245 0 10 9 28 19 41 17 23 18 23 33 5 9 -11 20 -15 28 -10 10 7 10 19 2 58 -6 27 -9 72 -6 99 4 28 2 66 -4 85 -11 40 -5 70 16 70 17 0 17 -4 0 44 -10 29 -12 78 -8 193 5 147 4 156 -18 195 -18 33 -21 50 -17 90 6 44 4 49 -11 43 -9 -5 -29 -10 -45 -13 -15 -2 -30 -8 -33 -13 -3 -5 -22 -9 -43 -9 -40 0 -61 -14 -61 -40 0 -15 -11 -17 -71 -14 -67 3 -75 5 -118 42 -26 22 -47 50 -49 63 -2 13 -8 28 -13 34 -5 5 -9 24 -9 42 0 38 -25 92 -50 110 -10 7 -16 22 -14 35 14 99 13 98 45 98 16 0 37 -4 47 -9 39 -19 82 -28 120 -25 30 2 44 -2 57 -16 27 -29 73 -26 101 8 13 15 24 32 24 38 0 12 65 142 80 161 6 7 10 19 10 28 0 24 30 78 51 93 23 16 25 50 3 59 -9 3 -13 12 -9 22 13 32 16 123 6 154 -15 44 -47 64 -69 44 -10 -9 -46 -23 -82 -32 -71 -18 -130 -53 -161 -96 -19 -26 -19 -30 -4 -66 10 -24 12 -39 5 -41 -5 -2 -10 -16 -10 -31 0 -25 -29 -60 -54 -65 -6 -2 -27 -6 -46 -10 -41 -8 -50 -23 -143 -236 -36 -81 -63 -128 -76 -135 -25 -12 -25 -27 -3 -80 22 -51 42 -80 65 -88 9 -3 17 -16 17 -27 0 -14 7 -20 23 -20 12 0 46 -12 76 -25 51 -24 53 -26 37 -43 -9 -9 -23 -25 -29 -35 -12 -18 -15 -18 -52 4 -22 12 -49 30 -59 38 -11 9 -21 12 -23 6 -11 -31 -22 -39 -36 -27 -17 15 -27 6 -27 -24 0 -12 -4 -24 -9 -26 -4 -1 -11 -19 -14 -38 -6 -29 -2 -40 23 -69 17 -18 31 -41 31 -50 1 -9 2 -23 3 -31 3 -27 -15 -51 -50 -67 -22 -11 -34 -24 -34 -37 0 -43 -13 -63 -56 -89 -57 -34 -131 -38 -159 -7 -10 11 -34 22 -54 26 -47 8 -111 68 -111 104 0 14 7 35 15 47 12 17 13 24 3 35 -25 27 -58 77 -58 89 0 7 -16 27 -35 46 -41 40 -93 145 -93 185 0 15 -14 55 -31 88 -24 46 -31 72 -29 103 l3 42 55 0 c47 0 55 3 58 20 2 11 10 34 19 52 16 30 16 33 -15 96 -37 74 -40 102 -13 117 13 6 17 17 14 30 -3 11 0 20 6 20 15 0 14 37 -2 43 -16 6 -37 94 -37 155 1 49 17 82 42 82 8 0 15 7 15 15 0 8 -9 15 -19 15 -11 0 -18 5 -16 13 7 19 49 37 90 37 23 0 40 6 46 16 8 14 80 34 182 51 19 3 38 11 42 18 5 8 25 11 60 7 57 -5 98 -33 121 -82 11 -21 20 -25 62 -27 28 -1 66 -4 87 -8 31 -6 38 -4 48 15 6 12 9 33 5 47 -4 16 0 34 10 50 17 25 17 25 140 19 105 -5 129 -10 167 -31z m-5084 -1090 c-3 -3 -9 2 -12 12 -6 14 -5 15 5 6 7 -7 10 -15 7 -18z m127 -168 c15 -27 34 -51 42 -54 21 -8 5 -143 -17 -143 -11 0 -40 46 -40 64 0 7 -7 27 -15 42 -8 16 -15 38 -15 49 -1 11 -7 31 -15 45 -8 14 -14 30 -14 35 0 6 6 -1 14 -15 11 -20 15 -22 19 -10 4 9 -7 44 -24 78 -40 83 -38 92 4 17 18 -33 45 -82 61 -108z m-101 117 c3 -8 2 -12 -4 -9 -6 3 -10 10 -10 16 0 14 7 11 14 -7z m9677 -2899 c12 -72 29 -87 29 -25 0 22 5 40 10 40 6 0 10 -7 10 -16 0 -11 6 -13 19 -9 14 4 21 0 26 -15 4 -12 18 -25 31 -30 13 -5 24 -15 24 -22 0 -7 9 -19 20 -26 11 -7 20 -19 20 -28 0 -8 7 -14 16 -12 10 2 24 -10 36 -30 10 -18 29 -44 43 -56 14 -13 25 -26 25 -30 0 -4 14 -20 30 -36 17 -17 28 -30 25 -30 -4 0 3 -13 14 -29 12 -16 22 -39 23 -52 2 -13 11 -27 21 -31 10 -4 16 -12 13 -17 -4 -5 3 -30 13 -55 l20 -45 68 39 c64 37 71 39 101 28 19 -8 30 -18 28 -25 -3 -7 2 -13 10 -13 12 0 14 -7 9 -32 -10 -46 -17 -52 -90 -84 -73 -30 -77 -41 -45 -101 11 -21 20 -46 20 -55 0 -10 5 -18 11 -18 6 0 9 -9 6 -20 -3 -11 -1 -20 4 -20 14 0 32 -49 36 -95 5 -63 9 -84 15 -91 4 -3 3 -17 -2 -30 -6 -14 -6 -26 0 -29 5 -3 9 -27 8 -53 0 -26 3 -55 7 -66 5 -12 3 -21 -6 -27 -11 -6 -11 -11 -1 -21 18 -18 15 -38 -8 -38 -13 0 -18 -5 -14 -15 7 -17 -11 -21 -21 -5 -3 6 -12 10 -20 10 -10 0 -11 -5 -2 -25 7 -14 17 -25 23 -25 17 0 57 -47 52 -61 -3 -8 -23 4 -55 34 -27 26 -53 47 -56 47 -3 0 10 -23 29 -51 19 -29 32 -55 28 -58 -3 -3 -28 18 -55 47 -51 56 -63 58 -29 7 11 -16 20 -36 20 -44 0 -22 -35 14 -66 66 -31 53 -41 52 -19 -2 9 -20 14 -39 11 -42 -17 -17 -106 217 -137 362 -44 204 -67 260 -115 275 -38 13 -38 13 -23 42 21 39 -7 106 -106 253 -96 144 -215 359 -215 388 0 10 5 17 10 17 6 0 10 -5 10 -12 0 -6 3 -9 6 -6 3 3 -2 30 -10 59 -9 29 -16 62 -16 73 1 19 2 19 14 -4 8 -14 20 -45 27 -70 15 -53 35 -80 25 -35 -3 17 -8 59 -11 95 l-6 65 16 -34 c8 -19 18 -51 21 -73 12 -69 19 -48 17 45 -3 102 8 95 28 -18z"/>
 <path d="M11050 5437 c0 -40 8 -51 26 -36 11 9 11 16 -2 40 -19 37 -24 37 -24 -4z"/>
 <path d="M10816 5131 c-16 -3 -32 -13 -36 -21 -28 -56 -50 -135 -50 -179 0 -17 -6 -46 -14 -64 -16 -39 -32 -302 -18 -311 14 -8 38 23 52 69 7 22 20 56 30 75 9 19 23 58 29 85 7 28 18 59 25 70 7 11 15 54 18 95 3 41 15 101 26 133 l20 57 -26 -1 c-15 -1 -40 -4 -56 -8z"/>
 <path d="M12040 5011 c0 -29 9 -53 31 -84 29 -42 32 -43 72 -37 23 3 54 1 68 -4 40 -14 62 -1 55 32 -3 15 -8 42 -12 60 -8 42 -15 45 -54 26 -39 -20 -79 -13 -125 22 l-35 26 0 -41z"/>
 <path d="M12500 4576 c0 -22 29 -41 42 -28 8 8 8 15 -2 27 -16 19 -40 20 -40 1z"/>
 <path d="M12498 4373 c-3 -49 -9 -96 -13 -105 -5 -14 -2 -18 12 -18 15 0 24 13 36 51 10 28 17 62 17 76 0 27 -26 83 -39 83 -5 0 -11 -39 -13 -87z"/>
 <path d="M10555 3350 c3 -5 10 -10 16 -10 5 0 9 5 9 10 0 6 -7 10 -16 10 -8 0 -12 -4 -9 -10z"/>
 <path d="M1867 5603 c-2 -5 -5 -33 -5 -63 -2 -70 11 -88 60 -82 36 4 37 5 40 50 2 36 -2 52 -17 68 -21 22 -71 39 -78 27z"/>
 <path d="M1891 5411 c-8 -5 -15 -24 -16 -43 -1 -18 -8 -74 -15 -124 -13 -93 -8 -144 10 -114 6 8 10 35 10 60 0 25 5 63 10 85 11 47 23 145 18 145 -1 0 -9 -4 -17 -9z"/>
 <path d="M1045 4300 c-3 -5 -14 -10 -24 -10 -30 0 -36 -17 -31 -90 3 -38 2 -70 -2 -70 -4 0 -5 -28 -2 -62 6 -75 6 -219 0 -225 -6 -6 -19 204 -20 327 -1 102 -2 105 -24 108 -13 2 -33 -5 -44 -15 -11 -10 -39 -25 -61 -34 -23 -9 -46 -26 -52 -38 -5 -11 -17 -23 -26 -26 -17 -6 -127 -124 -146 -159 -16 -27 -17 -118 -1 -134 7 -7 11 -36 9 -72 -2 -60 -2 -62 40 -102 42 -41 42 -41 83 -29 23 7 84 18 136 24 52 6 98 15 101 20 4 5 7 32 8 60 1 66 11 75 11 9 0 -28 5 -54 11 -57 9 -6 103 -7 336 -2 46 1 77 -3 85 -11 31 -31 82 2 72 46 -6 23 -89 144 -127 184 -6 7 -28 34 -47 59 -19 25 -57 72 -85 104 -92 106 -111 130 -139 168 -28 37 -49 46 -61 27z"/>
 <path d="M1096 3565 c-11 -8 -28 -15 -38 -15 -27 0 -22 -25 11 -57 l28 -28 277 -1 c171 -1 278 2 282 8 14 23 -20 32 -119 33 -87 1 -110 5 -157 27 -88 40 -250 59 -284 33z"/>
 <path d="M695 3561 c-53 -5 -60 -9 -63 -28 -2 -13 1 -23 7 -23 6 0 19 -9 29 -20 17 -19 32 -21 146 -22 77 -1 130 2 137 9 7 7 6 22 -3 51 l-12 40 -91 -1 c-49 0 -117 -3 -150 -6z"/>
 <path d="M660 3436 c0 -7 -7 -19 -15 -26 -18 -15 -20 -78 -5 -132 8 -28 8 -44 -1 -60 -7 -13 -12 -48 -13 -78 0 -47 5 -63 35 -110 36 -55 139 -160 158 -160 5 0 22 -11 38 -24 15 -13 52 -36 81 -51 29 -15 55 -31 58 -36 3 -5 12 -9 19 -9 12 0 14 16 10 83 -7 117 -25 546 -25 585 l0 32 -170 0 c-138 0 -170 -3 -170 -14z"/>
 <path d="M2730 3833 c-19 -8 -36 -16 -38 -18 -7 -6 57 -135 67 -135 6 0 14 12 17 28 4 15 10 29 13 32 22 17 51 66 51 86 0 21 -5 24 -37 23 -21 0 -54 -7 -73 -16z"/>
 <path d="M13366 4544 c-4 -11 -1 -14 11 -12 9 2 18 9 21 16 6 18 -25 15 -32 -4z"/>
 <path d="M13490 3516 c-42 -25 -86 -43 -117 -50 -17 -4 -52 -15 -79 -24 -46 -17 -49 -20 -49 -52 0 -31 4 -36 33 -46 48 -15 55 -26 43 -68 -5 -20 -7 -52 -4 -70 7 -43 0 -55 -65 -106 -29 -22 -57 -52 -62 -66 -8 -20 -16 -24 -49 -24 -23 0 -48 -8 -62 -19 -26 -21 -26 -25 -16 -341 3 -125 24 -154 169 -236 84 -49 151 -63 288 -64 127 0 230 21 281 59 15 12 32 21 36 21 18 1 115 89 160 145 46 58 67 96 128 229 49 107 33 302 -36 438 -21 42 -37 52 -91 62 -56 10 -88 30 -106 67 -9 18 -35 45 -58 59 -22 14 -56 35 -75 48 -63 42 -224 65 -269 38z"/>
 <path d="M5727 4953 c-4 -8 -4 -30 12 -253 8 -119 27 -190 50 -190 5 0 12 34 16 76 4 42 13 91 21 109 18 44 46 218 38 238 -3 9 -18 16 -32 16 -15 0 -43 3 -63 7 -20 3 -39 2 -42 -3z"/>
 <path d="M9223 4253 c-8 -3 -11 -14 -7 -29 4 -17 -1 -36 -19 -62 -35 -52 -42 -94 -22 -126 10 -14 21 -26 25 -26 13 0 53 237 41 244 -3 2 -12 1 -18 -1z"/>
 <path d="M8860 5437 c-21 -34 -20 -103 2 -159 7 -18 7 -37 0 -60 -6 -18 -11 -70 -11 -115 -1 -60 -6 -91 -20 -115 -10 -18 -17 -46 -15 -63 1 -16 3 -49 3 -72 1 -38 4 -43 25 -43 28 0 39 13 55 63 7 20 16 37 20 37 4 0 16 19 26 43 9 23 21 51 26 62 10 21 18 64 25 130 11 95 13 102 48 119 28 13 34 22 39 56 13 96 -38 148 -146 149 -54 0 -59 -2 -77 -32z"/>
 <path d="M8333 4657 c-3 -5 -2 -11 1 -14 3 -3 -2 -13 -12 -22 -28 -25 -33 -47 -13 -65 10 -9 21 -16 25 -16 15 0 87 -87 93 -112 3 -15 12 -33 19 -39 8 -6 14 -30 14 -54 0 -34 4 -44 25 -55 18 -10 33 -11 53 -4 26 9 27 13 30 80 2 61 7 75 27 94 29 27 34 92 10 116 -8 9 -15 26 -15 38 0 25 -16 42 -40 45 -20 1 -65 9 -65 11 0 6 -148 3 -152 -3z"/>
 <path d="M7694 4615 c3 -8 2 -15 -3 -15 -13 0 12 -121 31 -150 9 -14 18 -49 21 -79 7 -59 20 -81 48 -81 18 0 23 10 20 38 -1 6 2 12 8 12 14 0 31 58 37 125 3 33 10 76 15 95 13 50 13 50 -36 50 -25 0 -45 5 -45 10 0 6 -23 10 -51 10 -41 0 -50 -3 -45 -15z m24 -50 c-3 -3 -9 2 -12 12 -6 14 -5 15 5 6 7 -7 10 -15 7 -18z"/>
 </g>

</svg>